<svg width="19" height="23" viewBox="0 0 19 23" fill="none" xmlns="http://www.w3.org/2000/svg">
<path fill-rule="evenodd" clip-rule="evenodd" d="M17.8774 8.11043C16.7787 6.74129 15.2371 5.94922 13.7819 5.94922C11.8568 5.94922 11.0434 6.86385 9.70782 6.86385C8.33122 6.86385 7.28444 5.95055 5.61931 5.95055C3.98374 5.95055 2.24481 6.94404 1.14235 8.64195C-0.409024 11.0296 -0.146332 15.522 2.36922 19.3502C3.26893 20.7191 4.4705 22.2585 6.04159 22.2732C7.4379 22.2859 7.83301 21.3825 9.72753 21.3719C11.6223 21.3615 11.9807 22.283 13.3767 22.27C14.9478 22.255 16.2154 20.5505 17.1146 19.1813C17.7591 18.2006 17.9991 17.7051 18.4997 16.5965C14.8628 15.2223 14.278 10.0833 17.8774 8.11043Z" fill="#111827"/>
<path fill-rule="evenodd" clip-rule="evenodd" d="M12.3216 4.41927C13.0209 3.52196 13.5522 2.25433 13.3593 0.958984C12.2169 1.03785 10.8805 1.76438 10.1004 2.71204C9.39226 3.57205 8.80746 4.84741 9.03499 6.08707C10.2821 6.12571 11.5727 5.38052 12.3216 4.41927Z" fill="#111827"/>
</svg>
