<svg width="130" height="28" viewBox="0 0 130 28" fill="none" xmlns="http://www.w3.org/2000/svg">
<g clip-path="url(#clip0_2474_6467)">
<path d="M0.348084 19.0875C0.204209 18.215 0.116018 17.3425 0.0765682 16.4701C0.0440804 16.0345 0.0371187 15.5976 0.0185543 15.162L0 13.8527L0.0185543 12.5446C0.0371187 12.1077 0.0440804 11.6721 0.0765682 11.2353C0.12762 10.3628 0.201889 9.49161 0.348084 8.61914C0.491958 9.49161 0.58015 10.3628 0.619599 11.2353C0.652087 11.6721 0.656728 12.1077 0.677613 12.5446L0.696167 13.8527L0.67529 15.162C0.656726 15.5976 0.649764 16.0345 0.617276 16.4701C0.566224 17.3425 0.491958 18.215 0.348084 19.0875Z" fill="#E85D04"/>
<path d="M2.0434 22.0042C1.89952 20.6464 1.82525 19.29 1.77188 17.9284C1.74171 17.2496 1.73475 16.5707 1.71387 15.8905L1.69531 13.8527L1.71387 11.8148C1.73243 11.1359 1.73939 10.4583 1.77188 9.77692C1.82293 8.41919 1.89952 7.06273 2.0434 5.70117C2.18959 7.05763 2.27543 8.41409 2.31488 9.77692C2.34737 10.4558 2.35433 11.1334 2.3729 11.8148L2.39148 13.8527L2.3729 15.8905C2.35433 16.5694 2.34737 17.2483 2.31488 17.9284C2.26383 19.29 2.18727 20.6464 2.0434 22.0042Z" fill="#E85D04"/>
<path d="M3.74066 19.0875C3.59447 18.215 3.5086 17.3425 3.46915 16.4701C3.43666 16.0345 3.4297 15.5976 3.41113 15.162L3.39258 13.8527L3.40881 12.5446C3.42969 12.1077 3.43434 11.6721 3.46682 11.2353C3.51788 10.3628 3.59447 9.49161 3.74066 8.61914C3.88454 9.49161 3.9727 10.3628 4.01215 11.2353C4.04464 11.6721 4.04928 12.1077 4.07016 12.5446L4.08642 13.8527L4.06784 15.162C4.04928 15.5976 4.04231 16.0345 4.00983 16.4701C3.95877 17.3425 3.88454 18.215 3.74066 19.0875Z" fill="#E85D04"/>
<path d="M5.43402 18.0192C5.29015 17.3238 5.20196 16.6296 5.16251 15.9355C5.13002 15.5877 5.12306 15.2413 5.10449 14.8936L5.08594 13.8517L5.10449 12.8099C5.12306 12.4634 5.13002 12.1157 5.16251 11.7693C5.21356 11.0739 5.28783 10.3797 5.43402 9.68555C5.5779 10.3797 5.66606 11.0739 5.70551 11.7693C5.738 12.1157 5.74496 12.4634 5.76352 12.8099L5.7821 13.8517L5.76352 14.8936C5.74264 15.2413 5.73568 15.5877 5.70551 15.9355C5.65446 16.6296 5.5779 17.3238 5.43402 18.0192Z" fill="#E85D04"/>
<path d="M7.13129 20.1918C6.98741 19.1359 6.91315 18.0788 6.86209 17.0229C6.82961 16.4943 6.82264 15.9658 6.80408 15.4372L6.7832 13.8527L6.80176 12.2683C6.82264 11.7397 6.82728 11.2124 6.85977 10.6838C6.91082 9.6267 6.98741 8.57082 7.13129 7.51367C7.27748 8.57082 7.36332 9.6267 7.40277 10.6838C7.43526 11.2124 7.44222 11.7397 7.46079 12.2683L7.47937 13.8527L7.46079 15.4372C7.44222 15.9658 7.43526 16.4943 7.40277 17.0229C7.35172 18.0801 7.27516 19.1359 7.13129 20.1918Z" fill="#E85D04"/>
<path d="M8.8266 22.2535C8.68272 20.8524 8.60616 19.4514 8.55511 18.0503C8.52262 17.3511 8.51566 16.6493 8.4971 15.9513L8.47852 13.8523L8.4971 11.7533C8.51566 11.0541 8.52262 10.3523 8.55511 9.65429C8.60616 8.25325 8.6804 6.85221 8.8266 5.45117C8.97047 6.85221 9.05867 8.25325 9.09811 9.65429C9.1306 10.3535 9.13524 11.0553 9.15613 11.7533L9.17468 13.8523L9.15381 15.9513C9.13524 16.6518 9.12828 17.3524 9.09579 18.0503C9.04474 19.4539 8.97047 20.8537 8.8266 22.2535Z" fill="#E85D04"/>
<path d="M10.5219 24.0895C10.3873 22.3828 10.2968 20.6765 10.2504 18.9706C10.2203 18.1173 10.2133 17.2639 10.1924 16.4118L10.1738 13.8517L10.1924 11.2929C10.211 10.4396 10.2179 9.58621 10.2504 8.73412C10.2968 7.0274 10.3873 5.32111 10.5219 3.61523C10.6565 5.32195 10.747 7.02825 10.7934 8.73412C10.8259 9.58621 10.8329 10.4396 10.8514 11.2929L10.87 13.8517L10.8514 16.4118C10.8329 17.2639 10.8259 18.1173 10.7934 18.9706C10.747 20.6765 10.6565 22.3828 10.5219 24.0895Z" fill="#E85D04"/>
<path d="M12.2169 18.0367C12.073 17.3387 11.9987 16.642 11.9477 15.944C11.9152 15.5963 11.9082 15.2473 11.8896 14.8984L11.8711 13.8527L11.8874 12.807C11.9082 12.458 11.9129 12.1103 11.9454 11.7613C11.9964 11.0646 12.073 10.3666 12.2169 9.66992C12.363 10.3666 12.4489 11.0646 12.4907 11.7613C12.5232 12.1103 12.5278 12.458 12.5487 12.807L12.5649 13.8527L12.5464 14.8984C12.5278 15.2473 12.5209 15.5963 12.4884 15.944C12.4373 16.642 12.363 17.3387 12.2169 18.0367Z" fill="#E85D04"/>
<path d="M13.9125 25.6196C13.7779 23.6581 13.6874 21.6967 13.641 19.7352C13.6085 18.7558 13.6016 17.775 13.583 16.7943L13.5645 13.8521L13.583 10.9112C13.6016 9.93048 13.6085 8.94976 13.641 7.96903C13.6859 6.00757 13.7764 4.04654 13.9125 2.08594C14.0471 4.04739 14.1376 6.00842 14.1841 7.96903C14.2165 8.94976 14.2235 9.93048 14.2421 10.9112L14.2606 13.8521L14.2421 16.7943C14.2212 17.775 14.2142 18.7558 14.1841 19.7352C14.1376 21.6967 14.0471 23.6581 13.9125 25.6196Z" fill="#E85D04"/>
<path d="M15.6098 22.0042C15.4659 20.6477 15.3917 19.29 15.3406 17.9284C15.3081 17.2496 15.3012 16.5707 15.2826 15.8905L15.2617 13.8527L15.2803 11.8148C15.3012 11.1359 15.3058 10.4583 15.3383 9.77692C15.3893 8.41919 15.4659 7.06273 15.6098 5.70117C15.756 7.05763 15.8303 8.41409 15.8813 9.77692C15.9138 10.4558 15.9208 11.1334 15.9393 11.8148L15.9579 13.8527L15.9393 15.8905C15.9208 16.5694 15.9138 17.2483 15.8813 17.9284C15.8303 19.29 15.7537 20.6477 15.6098 22.0042Z" fill="#E85D04"/>
<path d="M17.3051 17.4664C17.1612 16.8639 17.0847 16.2615 17.0336 15.659C17.0011 15.3572 16.9942 15.0566 16.9756 14.7547L16.957 13.8517L16.9756 12.9487C16.9942 12.6468 17.0011 12.3462 17.0336 12.0443C17.0847 11.4419 17.1589 10.8395 17.3051 10.2383C17.449 10.8395 17.5372 11.4419 17.5766 12.0443C17.6091 12.3462 17.6138 12.6468 17.6346 12.9487L17.6532 13.8517L17.6323 14.7547C17.6138 15.0566 17.6068 15.3572 17.5743 15.659C17.5233 16.2615 17.449 16.8639 17.3051 17.4664Z" fill="#E85D04"/>
<path d="M19.0004 19.1735C18.8566 18.2819 18.7823 17.4005 18.7289 16.514C18.6987 16.0695 18.6918 15.6225 18.6709 15.183L18.6523 13.8533L18.6709 12.5236C18.6895 12.0804 18.6964 11.632 18.7289 11.1939C18.78 10.3023 18.8566 9.41968 19.0004 8.5332C19.1466 9.42477 19.2325 10.3062 19.2719 11.1939C19.3044 11.6371 19.3114 12.0855 19.33 12.5236L19.3485 13.8533L19.33 15.183C19.3114 15.6263 19.3044 16.0746 19.2719 16.514C19.2209 17.4005 19.1443 18.287 19.0004 19.1735Z" fill="#E85D04"/>
<path d="M20.6977 20.4C20.5538 19.3085 20.4796 18.2182 20.4285 17.1267C20.396 16.5815 20.3891 16.0351 20.3705 15.49L20.3496 13.8533L20.3682 12.2167C20.3891 11.6715 20.3937 11.1264 20.4262 10.58C20.4773 9.48972 20.5538 8.39818 20.6977 7.30664C20.8439 8.39818 20.9298 9.48972 20.9692 10.58C21.0017 11.1264 21.0087 11.6715 21.0272 12.2167L21.0458 13.8533L21.0272 15.49C21.0087 16.0351 21.0017 16.5815 20.9692 17.1267C20.9182 18.2182 20.8485 19.3085 20.6977 20.4Z" fill="#E85D04"/>
<path d="M22.393 17.2046C22.2491 16.6455 22.1609 16.0876 22.1215 15.5285C22.089 15.2495 22.082 14.9706 22.0635 14.6904L22.0449 13.8523C22.0449 13.2944 22.0704 12.7353 22.1215 12.1762C22.1725 11.617 22.2468 11.0591 22.393 10.5C22.5369 11.0591 22.6134 11.6183 22.6645 12.1762C22.7155 12.734 22.7411 13.2944 22.7411 13.8523L22.7202 14.6904C22.7016 14.9706 22.6947 15.2495 22.6622 15.5285C22.6111 16.0876 22.5369 16.6455 22.393 17.2046Z" fill="#E85D04"/>
<path d="M24.0903 23.2051C23.9464 21.6462 23.8582 20.0885 23.8188 18.5295C23.7886 17.75 23.7816 16.9705 23.7607 16.191L23.7422 13.8526L23.7607 11.5141C23.7793 10.7346 23.7863 9.95513 23.8188 9.17692C23.8698 7.61795 23.9464 6.05897 24.0903 4.5C24.2365 6.05897 24.3107 7.61795 24.3618 9.17692C24.3943 9.95513 24.4012 10.7346 24.4198 11.5141L24.4384 13.8526L24.4198 16.191C24.4012 16.9705 24.3943 17.75 24.3618 18.5295C24.3107 20.0885 24.2341 21.6462 24.0903 23.2051Z" fill="#E85D04"/>
<path d="M25.7856 18.7621C25.6417 17.9431 25.5674 17.1254 25.5164 16.3065C25.4839 15.8976 25.4769 15.4888 25.4584 15.0799L25.4375 13.8521L25.4561 12.6243C25.4769 12.2154 25.4816 11.8066 25.5141 11.3977C25.5651 10.5788 25.6417 9.76106 25.7856 8.94336C25.9318 9.76106 26.0176 10.5788 26.0594 11.3977C26.0896 11.8066 26.0965 12.2154 26.1174 12.6243L26.1337 13.8521L26.1151 15.0799C26.0965 15.4888 26.0896 15.8976 26.0571 16.3065C26.006 17.1242 25.9318 17.9419 25.7856 18.7621Z" fill="#E85D04"/>
<path d="M27.4828 21.346C27.339 20.0978 27.2508 18.8483 27.2113 17.5989C27.1788 16.9748 27.1719 16.3494 27.1533 15.7253L27.1348 13.8517L27.1533 11.9781C27.1719 11.354 27.1788 10.7287 27.2113 10.1046C27.2624 8.8551 27.3367 7.60689 27.4828 6.35742C27.6267 7.60689 27.7033 8.8551 27.7543 10.1046C27.7868 10.7287 27.7938 11.354 27.8124 11.9781L27.8309 13.8517L27.8124 15.7253C27.7915 16.3494 27.7845 16.9748 27.752 17.5989C27.701 18.8483 27.6198 20.0978 27.4828 21.346Z" fill="#E85D04"/>
<path d="M29.1782 23.2051C29.0343 21.6462 28.9461 20.0872 28.9066 18.5295C28.8765 17.75 28.8672 16.9705 28.8486 16.191L28.8301 13.8526L28.8486 11.5141C28.8672 10.7346 28.8742 9.95513 28.9066 9.17692C28.9577 7.61795 29.0343 6.05897 29.1782 4.5C29.322 6.05897 29.3986 7.61795 29.4496 9.17692C29.4821 9.95513 29.4891 10.7346 29.5077 11.5141L29.5262 13.8526L29.5077 16.191C29.4891 16.9705 29.4798 17.75 29.4496 18.5295C29.3986 20.0872 29.322 21.6462 29.1782 23.2051Z" fill="#E85D04"/>
<path d="M30.8735 21.346C30.7296 20.0978 30.6553 18.8483 30.6043 17.5989C30.5718 16.9748 30.5648 16.3494 30.5463 15.7253L30.5254 13.8517L30.5439 11.9781C30.5648 11.354 30.5695 10.7287 30.602 10.1046C30.653 8.8551 30.7296 7.60689 30.8735 6.35742C31.0197 7.60689 31.0939 8.8551 31.145 10.1046C31.1774 10.7287 31.1844 11.354 31.203 11.9781L31.2216 13.8517L31.203 15.7253C31.1844 16.3494 31.1774 16.9748 31.145 17.5989C31.0939 18.8483 31.0173 20.0978 30.8735 21.346Z" fill="#E85D04"/>
<path d="M32.5707 18.7621C32.4269 17.9431 32.3387 17.1254 32.2992 16.3065C32.2667 15.8976 32.2598 15.4888 32.2412 15.0799L32.2227 13.8521L32.2412 12.6243C32.2598 12.2154 32.2667 11.8066 32.2992 11.3977C32.3503 10.5788 32.4245 9.76106 32.5707 8.94336C32.7146 9.76106 32.7912 10.5788 32.8422 11.3977C32.8747 11.8066 32.8794 12.2154 32.9002 12.6243L32.9188 13.8521L32.8979 15.0799C32.8794 15.4888 32.8724 15.8976 32.8399 16.3065C32.7889 17.1242 32.7146 17.9419 32.5707 18.7621Z" fill="#E85D04"/>
<path d="M34.2661 25.1054C34.1315 23.2288 34.0409 21.3532 33.9945 19.4783C33.9644 18.5409 33.9574 17.6035 33.9365 16.666L33.918 13.8525L33.9365 11.039C33.9551 10.1015 33.962 9.16411 33.9945 8.22669C34.0409 6.35015 34.1315 4.47445 34.2661 2.59961C34.4006 4.47615 34.4911 6.35185 34.5375 8.22669C34.57 9.16411 34.577 10.1015 34.5956 11.039L34.6141 13.8525L34.5956 16.666C34.577 17.6035 34.57 18.5409 34.5375 19.4783C34.4911 21.3548 34.4006 23.2305 34.2661 25.1054Z" fill="#E85D04"/>
<path d="M35.961 18.7621C35.8171 17.9431 35.7429 17.1254 35.6918 16.3065C35.6593 15.8976 35.6524 15.4888 35.6338 15.0799L35.6152 13.8521L35.6315 12.6243C35.6524 12.2154 35.657 11.8066 35.6895 11.3977C35.7406 10.5788 35.8171 9.76106 35.961 8.94336C36.1072 9.76106 36.1931 10.5788 36.2348 11.3977C36.2673 11.8066 36.272 12.2154 36.2928 12.6243L36.3091 13.8521L36.2905 15.0799C36.272 15.4888 36.265 15.8976 36.2325 16.3065C36.1815 17.1242 36.1072 17.9419 35.961 18.7621Z" fill="#E85D04"/>
<path d="M37.6567 23.1684C37.5128 21.6158 37.4246 20.0632 37.3852 18.5106C37.3527 17.7349 37.3457 16.958 37.3271 16.1823L37.3086 13.8527L37.3271 11.5245C37.3457 10.7475 37.3527 9.97187 37.3852 9.19493C37.4362 7.64232 37.5105 6.08972 37.6567 4.53711C37.8006 6.08972 37.8887 7.64232 37.9282 9.19493C37.9607 9.97187 37.9676 10.7475 37.9862 11.5245L38.0048 13.8527L37.9862 16.1823C37.9653 16.958 37.9584 17.7349 37.9282 18.5106C37.8655 20.0632 37.7913 21.6158 37.6567 23.1684Z" fill="#E85D04"/>
<path d="M39.352 25.1054C39.2174 23.2288 39.1277 21.3532 39.0828 19.4783C39.0503 18.5409 39.0434 17.6035 39.0248 16.666L39.0039 13.8525L39.0225 11.039C39.0434 10.1015 39.048 9.16411 39.0805 8.22669C39.1269 6.35015 39.2174 4.47445 39.352 2.59961C39.4881 4.47615 39.5786 6.35185 39.6235 8.22669C39.656 9.16411 39.663 10.1015 39.6815 11.039L39.7001 13.8525L39.6815 16.666C39.663 17.6035 39.656 18.5409 39.6235 19.4783C39.5771 21.3548 39.4866 23.2305 39.352 25.1054Z" fill="#E85D04"/>
<path d="M41.0493 23.1684C40.9054 21.6158 40.8288 20.0632 40.7777 18.5106C40.7453 17.7349 40.7383 16.958 40.7197 16.1823L40.7012 13.8527L40.7197 11.5245C40.7383 10.7475 40.7453 9.97187 40.7777 9.19493C40.8288 7.64232 40.9031 6.08972 41.0493 4.53711C41.1931 6.08972 41.2813 7.64232 41.3207 9.19493C41.3532 9.97187 41.3579 10.7475 41.3788 11.5245L41.3973 13.8527L41.3764 16.1823C41.3579 16.958 41.3509 17.7349 41.3184 18.5106C41.2674 20.0632 41.1931 21.6158 41.0493 23.1684Z" fill="#E85D04"/>
<path d="M42.7446 19.8472C42.6007 18.8486 42.5265 17.8488 42.4731 16.8502C42.4429 16.3509 42.436 15.8517 42.4151 15.3524L42.3965 13.8533L42.4151 12.3554C42.4336 11.8549 42.4406 11.3556 42.4731 10.8563C42.5241 9.85776 42.6007 8.85793 42.7446 7.85938C42.8908 8.85793 42.965 9.85776 43.0161 10.8563C43.0485 11.3556 43.0555 11.8549 43.0741 12.3554L43.0927 13.8533L43.0741 15.3524C43.0555 15.8517 43.0485 16.3509 43.0161 16.8502C42.965 17.8488 42.8884 18.8486 42.7446 19.8472Z" fill="#E85D04"/>
<path d="M44.4395 23.1684C44.2956 21.6158 44.2214 20.0632 44.1703 18.5106C44.1379 17.7349 44.1309 16.958 44.1123 16.1823L44.0938 13.8527L44.11 11.5245C44.1309 10.7475 44.1355 9.97187 44.168 9.19493C44.2191 7.64232 44.2956 6.08972 44.4395 4.53711C44.5857 6.08972 44.6716 7.64232 44.7133 9.19493C44.7458 9.97187 44.7504 10.7475 44.7713 11.5245L44.7876 13.8527L44.769 16.1823C44.7504 16.958 44.7435 17.7349 44.711 18.5106C44.6715 20.0632 44.588 21.6158 44.4395 23.1684Z" fill="#E85D04"/>
<path d="M46.1352 25.5629C46.0006 23.6099 45.9101 21.6595 45.8637 19.7116C45.8312 18.736 45.8243 17.7616 45.8057 16.7822L45.7871 13.8527L45.8057 10.9233C45.8243 9.94764 45.8312 8.97328 45.8637 7.99383C45.9086 6.04086 45.9991 4.09045 46.1352 2.14258C46.2698 4.09554 46.3603 6.04596 46.4067 7.99383C46.4392 8.96946 46.4461 9.94382 46.4647 10.9233L46.4833 13.8527L46.4647 16.7822C46.4438 17.7578 46.4368 18.7322 46.4067 19.7116C46.3603 21.662 46.2698 23.6124 46.1352 25.5629Z" fill="#E85D04"/>
<path d="M47.8305 27.7049C47.6959 25.3962 47.6061 23.0874 47.5613 20.7787C47.5288 19.6247 47.5218 18.4695 47.5033 17.3156L47.4824 13.8525L47.501 10.3893C47.5219 9.2354 47.5265 8.08018 47.559 6.92623C47.6054 4.61749 47.6959 2.30874 47.8305 0C47.9682 2.30959 48.0587 4.61834 48.102 6.92623C48.1345 8.08018 48.1414 9.2354 48.16 10.3893L48.1786 13.8525L48.16 17.3156C48.1414 18.4695 48.1345 19.6247 48.102 20.7787C48.0556 23.0866 47.9651 25.3953 47.8305 27.7049Z" fill="#E85D04"/>
<path d="M49.5278 25.5629C49.3932 23.6099 49.3026 21.6595 49.2562 19.7116C49.2237 18.736 49.2168 17.7616 49.1982 16.7822L49.1797 13.8527L49.1982 10.9233C49.2168 9.94764 49.2237 8.97328 49.2562 7.99383C49.3011 6.04086 49.3916 4.09045 49.5278 2.14258C49.6624 4.09554 49.7528 6.04596 49.7993 7.99383C49.8317 8.96946 49.8364 9.94382 49.8573 10.9233L49.8759 13.8527L49.8549 16.7822C49.8364 17.7578 49.8294 18.7322 49.7969 19.7116C49.7536 21.662 49.6639 23.6124 49.5278 25.5629Z" fill="#E85D04"/>
<path d="M51.2231 23.1684C51.0792 21.6158 50.991 20.0632 50.9515 18.5106C50.9214 17.7349 50.9121 16.958 50.8935 16.1823L50.875 13.8527L50.8935 11.5245C50.9121 10.7475 50.9191 9.97187 50.9515 9.19493C51.0026 7.64232 51.0792 6.08972 51.2231 4.53711C51.3693 6.08972 51.4435 7.64232 51.4946 9.19493C51.5271 9.97187 51.534 10.7475 51.5526 11.5245L51.5712 13.8527L51.5526 16.1823C51.534 16.958 51.5271 17.7349 51.4946 18.5106C51.4389 20.0632 51.367 21.6158 51.2231 23.1684Z" fill="#E85D04"/>
<path d="M52.9203 19.8472C52.7765 18.8486 52.7022 17.8488 52.6511 16.8502C52.6186 16.3509 52.6117 15.8517 52.5931 15.3524L52.5723 13.8533L52.5908 12.3554C52.6117 11.8549 52.6163 11.3556 52.6488 10.8563C52.6999 9.85776 52.7765 8.85793 52.9203 7.85938C53.0665 8.85793 53.1524 9.85776 53.1942 10.8563C53.2243 11.3556 53.2313 11.8549 53.2522 12.3554L53.2684 13.8533L53.2499 15.3524C53.2313 15.8517 53.2243 16.3509 53.1918 16.8502C53.1408 17.8488 53.0758 18.8486 52.9203 19.8472Z" fill="#E85D04"/>
<path d="M54.6157 23.2051C54.4718 21.6462 54.3952 20.0872 54.3441 18.5295C54.3116 17.75 54.3047 16.9705 54.2861 16.191L54.2676 13.8526L54.2861 11.5141C54.3047 10.7346 54.3116 9.95513 54.3441 9.17692C54.3952 7.61795 54.4695 6.05897 54.6157 4.5C54.7595 6.05897 54.8477 7.61795 54.8871 9.17692C54.9196 9.95513 54.9266 10.7346 54.9452 11.5141L54.9637 13.8526L54.9405 16.191C54.922 16.9705 54.915 17.75 54.8825 18.5295C54.8338 20.0872 54.7595 21.6462 54.6157 23.2051Z" fill="#E85D04"/>
<path d="M56.3129 25.1054C56.1783 23.2288 56.0886 21.3532 56.0437 19.4783C56.0112 18.5409 56.0043 17.6035 55.9857 16.666L55.9648 13.8525L55.9834 11.039C56.0043 10.1015 56.0089 9.16411 56.0414 8.22669C56.0878 6.35015 56.1783 4.47445 56.3129 2.59961C56.4491 4.47615 56.5396 6.35185 56.5844 8.22669C56.6169 9.16411 56.6239 10.1015 56.6424 11.039L56.661 13.8525L56.6424 16.666C56.6239 17.6035 56.6169 18.5409 56.5844 19.4783C56.538 21.3548 56.4475 23.2305 56.3129 25.1054Z" fill="#E85D04"/>
<path d="M58.0082 23.2051C57.8644 21.6462 57.7762 20.0872 57.7368 18.5295C57.7043 17.75 57.6973 16.9705 57.6787 16.191L57.6602 13.8526L57.6787 11.5141C57.6973 10.7346 57.7043 9.95513 57.7368 9.17692C57.7878 7.61795 57.862 6.05897 58.0082 4.5C58.1521 6.05897 58.2287 7.61795 58.2798 9.17692C58.3123 9.95513 58.3169 10.7346 58.3378 11.5141L58.3563 13.8526L58.3355 16.191C58.3169 16.9705 58.3099 17.75 58.2775 18.5295C58.2264 20.0872 58.1521 21.6462 58.0082 23.2051Z" fill="#E85D04"/>
<path d="M59.7055 18.7621C59.5616 17.9431 59.4851 17.1254 59.434 16.3065C59.4039 15.8976 59.3946 15.4888 59.376 15.0799L59.3574 13.8521L59.376 12.6243C59.3946 12.2154 59.4015 11.8066 59.434 11.3977C59.4851 10.5788 59.5616 9.76106 59.7055 8.94336C59.8494 9.76106 59.9376 10.5788 59.977 11.3977C60.0095 11.8066 60.0165 12.2154 60.0351 12.6243L60.0536 13.8521L60.0351 15.0799C60.0165 15.4888 60.0072 15.8976 59.977 16.3065C59.926 17.1242 59.8471 17.9419 59.7055 18.7621Z" fill="#E85D04"/>
<path d="M61.4008 25.1054C61.2662 23.2288 61.1765 21.3532 61.1317 19.4783C61.0992 18.5409 61.0922 17.6035 61.0736 16.666L61.0527 13.8525L61.0713 11.039C61.0922 10.1015 61.0968 9.16411 61.1293 8.22669C61.1757 6.35015 61.2662 4.47445 61.4008 2.59961C61.537 4.47615 61.6275 6.35185 61.6724 8.22669C61.7048 9.16411 61.7118 10.1015 61.7304 11.039L61.7489 13.8525L61.7304 16.666C61.7118 17.6035 61.7048 18.5409 61.6724 19.4783C61.626 21.3548 61.5354 23.2305 61.4008 25.1054Z" fill="#E85D04"/>
<path d="M63.0961 18.7621C62.9523 17.9431 62.8641 17.1254 62.8246 16.3065C62.7922 15.8976 62.7852 15.4888 62.7666 15.0799L62.748 13.8521L62.7666 12.6243C62.7852 12.2154 62.7922 11.8066 62.8246 11.3977C62.8757 10.5788 62.9499 9.76106 63.0961 8.94336C63.24 9.76106 63.3166 10.5788 63.3677 11.3977C63.4002 11.8066 63.4071 12.2154 63.4257 12.6243L63.4442 13.8521L63.4234 15.0799C63.4048 15.4888 63.3978 15.8976 63.3654 16.3065C63.3143 17.1242 63.24 17.9419 63.0961 18.7621Z" fill="#E85D04"/>
<path d="M64.7934 21.346C64.6495 20.0978 64.5753 18.8483 64.5242 17.5989C64.4917 16.9748 64.4848 16.3494 64.4662 15.7253L64.4453 13.8517L64.4639 11.9781C64.4825 11.354 64.4894 10.7287 64.5219 10.1046C64.573 8.8551 64.6495 7.60689 64.7934 6.35742C64.9396 7.60689 65.0255 8.8551 65.0649 10.1046C65.0974 10.7287 65.1044 11.354 65.123 11.9781L65.1415 13.8517L65.123 15.7253C65.1044 16.3494 65.0974 16.9748 65.0649 17.5989C65.0139 18.8483 64.9373 20.0978 64.7934 21.346Z" fill="#E85D04"/>
<path d="M66.4887 23.2051C66.3425 21.6462 66.2683 20.0872 66.2172 18.5295C66.1847 17.75 66.1778 16.9705 66.1592 16.191L66.1406 13.8526L66.1592 11.5141C66.1778 10.7346 66.1847 9.95513 66.2149 9.17692C66.266 7.61795 66.3425 6.05897 66.4887 4.5C66.6326 6.05897 66.7208 7.61795 66.7603 9.17692C66.7927 9.95513 66.7974 10.7346 66.8183 11.5141L66.8368 13.8526L66.8159 16.191C66.7974 16.9705 66.7904 17.75 66.7579 18.5295C66.7069 20.0872 66.6326 21.6462 66.4887 23.2051Z" fill="#E85D04"/>
<path d="M68.186 21.346C68.0421 20.0978 67.9539 18.8483 67.9145 17.5989C67.882 16.9748 67.875 16.3494 67.8565 15.7253L67.8379 13.8517L67.8565 11.9781C67.875 11.354 67.882 10.7287 67.9145 10.1046C67.9655 8.8551 68.0398 7.60689 68.186 6.35742C68.3298 7.60689 68.4065 8.8551 68.4575 10.1046C68.49 10.7287 68.4946 11.354 68.5155 11.9781L68.5341 13.8517L68.5132 15.7253C68.4946 16.3494 68.4877 16.9748 68.4552 17.5989C68.4041 18.8483 68.3298 20.0978 68.186 21.346Z" fill="#E85D04"/>
<path d="M69.8813 18.7621C69.7374 17.9431 69.6632 17.1254 69.6121 16.3065C69.5796 15.8976 69.5727 15.4888 69.5518 15.0799L69.5332 13.8521L69.5518 12.6243C69.5704 12.2154 69.5773 11.8066 69.6098 11.3977C69.6609 10.5788 69.7374 9.76106 69.8813 8.94336C70.0275 9.76106 70.1133 10.5788 70.1528 11.3977C70.1853 11.8066 70.1922 12.2154 70.2108 12.6243L70.2294 13.8521L70.2108 15.0799C70.1922 15.4888 70.1853 15.8976 70.1528 16.3065C70.0901 17.1242 70.0136 17.9419 69.8813 18.7621Z" fill="#E85D04"/>
<path d="M71.5786 17.2046C71.4347 16.6455 71.3581 16.0876 71.3071 15.5285C71.2746 15.2495 71.2676 14.9706 71.2491 14.6904L71.2305 13.8523C71.2305 13.2944 71.256 12.7353 71.3071 12.1762C71.3581 11.617 71.4324 11.0591 71.5786 10.5C71.7224 11.0591 71.8106 11.6183 71.8501 12.1762C71.8895 12.734 71.929 13.2944 71.9266 13.8523L71.9081 14.6904C71.8872 14.9706 71.8803 15.2495 71.8501 15.5285C71.7967 16.0876 71.7224 16.6455 71.5786 17.2046Z" fill="#E85D04"/>
<path d="M73.2739 23.2051C73.13 21.6462 73.0534 20.0872 73.0024 18.5295C72.9699 17.75 72.9629 16.9705 72.9444 16.191L72.9258 13.8526L72.9444 11.5141C72.9629 10.7346 72.9699 9.95513 73.0024 9.17692C73.0534 7.61795 73.1277 6.05897 73.2739 4.5C73.4177 6.05897 73.4943 7.61795 73.5454 9.17692C73.5778 9.95513 73.5848 10.7346 73.6034 11.5141L73.6219 13.8526L73.6034 16.191C73.5825 16.9705 73.5755 17.75 73.5454 18.5295C73.4943 20.0872 73.4177 21.6462 73.2739 23.2051Z" fill="#E85D04"/>
<path d="M74.9711 20.4C74.8273 19.3085 74.753 18.2169 74.702 17.1267C74.6695 16.5815 74.6625 16.0351 74.644 15.49L74.623 13.8533L74.6416 12.2167C74.6625 11.6715 74.6672 11.1264 74.6996 10.58C74.7507 9.48972 74.8273 8.39818 74.9711 7.30664C75.1173 8.39818 75.2032 9.48972 75.2426 10.58C75.2751 11.1264 75.2821 11.6715 75.3006 12.2167L75.3192 13.8533L75.3006 15.49C75.2821 16.0351 75.2751 16.5815 75.2426 17.1267C75.1916 18.2169 75.115 19.3085 74.9711 20.4Z" fill="#E85D04"/>
<path d="M76.6664 19.1735C76.5202 18.2819 76.446 17.4005 76.395 16.514C76.3625 16.0695 76.3555 15.6225 76.3369 15.183L76.3184 13.8533L76.3346 12.5236C76.3555 12.0804 76.3601 11.632 76.3926 11.1939C76.4437 10.3023 76.5202 9.41968 76.6664 8.5332C76.8103 9.42477 76.8985 10.3062 76.9379 11.1939C76.9704 11.6371 76.9751 12.0855 76.9959 12.5236L77.0122 13.8533L76.9936 15.183C76.9751 15.6263 76.9681 16.0746 76.9356 16.514C76.8822 17.4005 76.808 18.287 76.6664 19.1735Z" fill="#E85D04"/>
<path d="M78.3598 18.8861C78.2159 18.0468 78.1417 17.2087 78.0906 16.3694C78.0582 15.9503 78.0512 15.53 78.0303 15.111L78.0117 13.8526L78.0303 12.5942C78.0489 12.1752 78.0558 11.7561 78.0883 11.3358C78.1394 10.4977 78.2159 9.65839 78.3598 8.82031C78.506 9.65839 78.5918 10.4977 78.6313 11.3358C78.6638 11.7561 78.6707 12.1752 78.6893 12.5942L78.7079 13.8526L78.6893 15.111C78.6707 15.53 78.6638 15.9503 78.6313 16.3694C78.5802 17.2087 78.5037 18.0468 78.3598 18.8861Z" fill="#E85D04"/>
<path d="M80.0571 21.1391C79.9109 19.924 79.8366 18.7102 79.7856 17.4951C79.7531 16.8876 79.7461 16.28 79.7276 15.6738L79.709 13.8511L79.7252 12.0298C79.7461 11.4222 79.7531 10.8147 79.7833 10.2084C79.8343 8.99334 79.9109 7.77826 80.0571 6.56445C80.2009 7.77826 80.2891 8.99334 80.3286 10.2084C80.361 10.8147 80.3657 11.4222 80.3866 12.0298L80.4052 13.8511L80.3842 15.6738C80.3657 16.28 80.3587 16.8876 80.3262 17.4951C80.2752 18.7191 80.2009 19.9278 80.0571 21.1391Z" fill="#E85D04"/>
<path d="M81.7524 23.0076C81.6085 21.4792 81.5319 19.9584 81.4809 18.4338C81.4484 17.6696 81.4414 16.9054 81.4229 16.1412L81.4043 13.8486L81.4229 11.5624C81.4414 10.7982 81.4484 10.034 81.4809 9.26975C81.5319 7.74135 81.6062 6.22185 81.7524 4.69727C81.8963 6.22567 81.9728 7.74517 82.0239 9.26975C82.0564 10.034 82.0633 10.7982 82.0819 11.5624L82.1005 13.8486L82.0819 16.1412C82.061 16.9054 82.054 17.6696 82.0239 18.4338C81.9728 19.9584 81.8963 21.483 81.7524 23.0076Z" fill="#E85D04"/>
<path d="M83.4496 25.6196C83.3151 23.6581 83.2253 21.6967 83.1805 19.7352C83.148 18.7558 83.141 17.775 83.1225 16.7943L83.1016 13.8521L83.1201 10.9112C83.141 9.93048 83.1457 8.94976 83.1782 7.96903C83.2246 6.00757 83.3151 4.04654 83.4496 2.08594C83.5858 4.04739 83.6763 6.00842 83.7211 7.96903C83.7536 8.94976 83.7606 9.93048 83.7791 10.9112L83.7977 13.8521L83.7791 16.7943C83.7606 17.775 83.7536 18.7558 83.7211 19.7352C83.6763 21.6967 83.5858 23.6581 83.4496 25.6196Z" fill="#E85D04"/>
<path d="M85.145 22.2535C85.0011 20.8524 84.9129 19.4514 84.8735 18.0503C84.841 17.3511 84.834 16.6493 84.8155 15.9513L84.7969 13.8523L84.8155 11.7533C84.834 11.0541 84.841 10.3523 84.8735 9.65429C84.9245 8.25325 84.9988 6.85221 85.145 5.45117C85.2888 6.85221 85.3654 8.25325 85.4164 9.65429C85.4489 10.3535 85.4536 11.0553 85.4745 11.7533L85.493 13.8523L85.4721 15.9513C85.4536 16.6518 85.4466 17.3524 85.4141 18.0503C85.3631 19.4539 85.2888 20.8537 85.145 22.2535Z" fill="#E85D04"/>
<path d="M86.8404 16.534C86.7054 16.0905 86.6148 15.6432 86.5689 15.1941C86.5156 14.7471 86.4947 14.3026 86.4923 13.853C86.49 13.4033 86.5132 12.9614 86.5689 12.513C86.6135 12.0635 86.7042 11.6158 86.8404 11.1719C86.9778 11.6157 87.0685 12.0635 87.1119 12.513C87.1676 12.9601 87.1885 13.4046 87.1885 13.853C87.1885 14.3013 87.1676 14.7445 87.1119 15.1941C87.0672 15.6432 86.9766 16.0905 86.8404 16.534Z" fill="#E85D04"/>
<path d="M88.5375 18.0192C88.3913 17.3238 88.317 16.6296 88.266 15.9355C88.2335 15.5877 88.2265 15.2413 88.208 14.8936L88.1895 13.8517L88.2057 12.8099C88.2265 12.4634 88.2312 12.1157 88.2637 11.7693C88.3147 11.0739 88.3913 10.3797 88.5375 9.68555C88.6814 10.3797 88.7696 11.0739 88.809 11.7693C88.8415 12.1157 88.8462 12.4634 88.867 12.8099L88.8833 13.8517L88.8647 14.8936C88.8462 15.2413 88.8392 15.5877 88.8067 15.9355C88.7556 16.6296 88.6814 17.3238 88.5375 18.0192Z" fill="#E85D04"/>
<path d="M90.2309 19.0875C90.087 18.215 89.9988 17.3425 89.9594 16.4701C89.9269 16.0345 89.9199 15.5976 89.9013 15.162L89.8828 13.8527L89.9013 12.5446C89.9199 12.1077 89.9269 11.6721 89.9594 11.2353C90.0104 10.3628 90.0847 9.49161 90.2309 8.61914C90.3748 9.49161 90.4513 10.3628 90.5024 11.2353C90.5349 11.6721 90.5418 12.1077 90.5604 12.5446L90.579 13.8527L90.5604 15.162C90.5395 15.5976 90.5326 16.0345 90.5024 16.4701C90.4467 17.3425 90.3748 18.215 90.2309 19.0875Z" fill="#E85D04"/>
<path d="M91.9282 22.9602C91.7843 21.442 91.71 19.925 91.6589 18.4068C91.6265 17.6426 91.6195 16.8886 91.6009 16.1295L91.5801 13.8522L91.5986 11.5748C91.6195 10.817 91.6241 10.0579 91.6566 9.29879C91.7077 7.78058 91.7843 6.26236 91.9282 4.74414C92.0744 6.26236 92.1602 7.78058 92.1996 9.29879C92.2321 10.063 92.2391 10.817 92.2577 11.5748L92.2762 13.8522L92.2577 16.1295C92.2391 16.8937 92.2321 17.6477 92.1996 18.4068C92.1486 19.925 92.0836 21.442 91.9282 22.9602Z" fill="#E85D04"/>
<path d="M93.6235 19.0875C93.4796 18.215 93.403 17.3425 93.3519 16.4701C93.3194 16.0345 93.3125 15.5976 93.2939 15.162L93.2754 13.8527L93.2939 12.5446C93.3125 12.1077 93.3194 11.6721 93.3519 11.2353C93.403 10.3628 93.4773 9.49161 93.6235 8.61914C93.7673 9.49161 93.8555 10.3628 93.895 11.2353C93.9274 11.6721 93.9321 12.1077 93.953 12.5446L93.9716 13.8527L93.9507 15.162C93.9321 15.5976 93.9251 16.0345 93.8926 16.4701C93.8416 17.3425 93.7673 18.215 93.6235 19.0875Z" fill="#E85D04"/>
<path d="M95.3207 18.0192C95.1769 17.3238 95.1026 16.6296 95.0492 15.9355C95.019 15.5877 95.0121 15.2413 94.9912 14.8936L94.9727 13.8517L94.9912 12.8099C95.0097 12.4634 95.0167 12.1157 95.0492 11.7693C95.1002 11.0739 95.1769 10.3797 95.3207 9.68555C95.4669 10.3797 95.5412 11.0739 95.5922 11.7693C95.6247 12.1157 95.6317 12.4634 95.6502 12.8099L95.6688 13.8517L95.6502 14.8936C95.6317 15.2413 95.6247 15.5877 95.5922 15.9355C95.5412 16.6296 95.4646 17.3238 95.3207 18.0192Z" fill="#E85D04"/>
<path d="M97.0162 16.534C96.8808 16.0905 96.7909 15.6432 96.747 15.1941C96.6913 14.7471 96.6704 14.3026 96.6681 13.853C96.6658 13.4033 96.6913 12.9614 96.7447 12.513C96.7892 12.0635 96.8799 11.6158 97.0162 11.1719C97.1544 11.6157 97.2458 12.0635 97.29 12.513C97.3434 12.9601 97.3642 13.4046 97.3665 13.853C97.3689 14.3013 97.3434 14.7445 97.2877 15.1941C97.2441 15.6433 97.1535 16.0906 97.0162 16.534Z" fill="#E85D04"/>
<path d="M98.7153 18.0367C98.5714 17.3387 98.4948 16.642 98.4438 15.944C98.4113 15.5963 98.4043 15.2473 98.3858 14.8984L98.3672 13.8527L98.3858 12.807C98.4043 12.458 98.4113 12.1103 98.4438 11.7613C98.4948 11.0646 98.5691 10.3666 98.7153 9.66992C98.8591 10.3666 98.9474 11.0646 98.9868 11.7613C99.0193 12.1103 99.0263 12.458 99.0448 12.807L99.0634 13.8527L99.0448 14.8984C99.0239 15.2473 99.017 15.5963 98.9868 15.944C98.9334 16.642 98.8568 17.3387 98.7153 18.0367Z" fill="#E85D04"/>
<path d="M100.411 21.1391C100.267 19.924 100.192 18.7102 100.141 17.4951C100.109 16.8876 100.102 16.28 100.083 15.6738L100.062 13.8511L100.081 12.0298C100.102 11.4222 100.107 10.8147 100.139 10.2084C100.19 8.99334 100.267 7.77826 100.411 6.56445C100.557 7.77826 100.631 8.99334 100.682 10.2084C100.715 10.8147 100.722 11.4222 100.74 12.0298L100.759 13.8511L100.74 15.6738C100.722 16.28 100.715 16.8876 100.682 17.4951C100.631 18.7191 100.554 19.9278 100.411 21.1391Z" fill="#E85D04"/>
<path d="M102.108 16.0479C101.973 15.6856 101.882 15.3188 101.834 14.95C101.783 14.5844 101.76 14.2189 101.76 13.8521C101.76 13.4852 101.783 13.121 101.834 12.7542C101.881 12.3853 101.972 12.0185 102.108 11.6562C102.243 12.0185 102.335 12.3853 102.382 12.7542C102.433 13.121 102.456 13.4865 102.456 13.8521C102.456 14.2176 102.433 14.5844 102.382 14.95C102.335 15.3189 102.244 15.6857 102.108 16.0479Z" fill="#E85D04"/>
<path d="M103.801 20.1918C103.657 19.1359 103.583 18.0788 103.532 17.0229C103.499 16.4943 103.492 15.9658 103.474 15.4372L103.455 13.8527L103.471 12.2683C103.492 11.7397 103.497 11.2124 103.529 10.6838C103.58 9.6267 103.657 8.57082 103.801 7.51367C103.947 8.57082 104.033 9.6267 104.075 10.6838C104.107 11.2124 104.112 11.7397 104.133 12.2683L104.149 13.8527L104.13 15.4372C104.112 15.9658 104.105 16.4943 104.072 17.0229C104.021 18.0801 103.947 19.1359 103.801 20.1918Z" fill="#E85D04"/>
<path d="M105.497 16.0479C105.361 15.6857 105.269 15.3189 105.223 14.95C105.172 14.5844 105.148 14.2189 105.148 13.8521C105.148 13.4852 105.172 13.121 105.223 12.7542C105.27 12.3853 105.361 12.0185 105.497 11.6562C105.632 12.0185 105.723 12.3853 105.77 12.7542C105.821 13.121 105.845 13.4865 105.845 13.8521C105.845 14.2176 105.819 14.5844 105.768 14.95C105.722 15.3188 105.632 15.6856 105.497 16.0479Z" fill="#E85D04"/>
<path d="M107.194 17.2046C107.05 16.6455 106.976 16.0876 106.925 15.5285C106.892 15.2495 106.885 14.9706 106.867 14.6904L106.846 13.8523C106.846 13.2944 106.871 12.7353 106.922 12.1762C106.973 11.617 107.05 11.0591 107.194 10.5C107.34 11.0591 107.426 11.6183 107.465 12.1762C107.505 12.734 107.544 13.2944 107.542 13.8523L107.523 14.6904C107.505 14.9706 107.498 15.2495 107.465 15.5285C107.407 16.0876 107.331 16.6455 107.194 17.2046Z" fill="#E85D04"/>
<path d="M108.889 18.0367C108.745 17.3387 108.669 16.642 108.618 15.944C108.585 15.5963 108.578 15.2473 108.56 14.8984L108.541 13.8527L108.56 12.807C108.578 12.458 108.585 12.1103 108.618 11.7613C108.669 11.0646 108.743 10.3666 108.889 9.66992C109.033 10.3666 109.121 11.0646 109.161 11.7613C109.193 12.1103 109.198 12.458 109.219 12.807L109.237 13.8527L109.216 14.8984C109.198 15.2473 109.191 15.5963 109.158 15.944C109.107 16.642 109.033 17.3387 108.889 18.0367Z" fill="#E85D04"/>
<path d="M110.586 17.2046C110.442 16.6455 110.366 16.0876 110.315 15.5285C110.282 15.2495 110.275 14.9706 110.257 14.6904L110.238 13.8523C110.238 13.2944 110.264 12.7353 110.315 12.1762C110.366 11.617 110.44 11.0591 110.586 10.5C110.73 11.0591 110.807 11.6183 110.858 12.1762C110.909 12.734 110.937 13.2944 110.934 13.8523L110.916 14.6904C110.895 14.9706 110.888 15.2495 110.856 15.5285C110.804 16.0876 110.73 16.6455 110.586 17.2046Z" fill="#E85D04"/>
<path d="M112.282 16.0479C112.148 15.6855 112.057 15.3188 112.01 14.95C111.959 14.5848 111.934 14.2189 111.934 13.8521C111.934 13.4865 111.957 13.121 112.008 12.7542C112.055 12.3853 112.146 12.0185 112.282 11.6562C112.417 12.0185 112.509 12.3853 112.555 12.7542C112.607 13.121 112.63 13.4865 112.63 13.8521C112.63 14.2176 112.607 14.5844 112.555 14.95C112.509 15.3189 112.417 15.6857 112.282 16.0479Z" fill="#E85D04"/>
<path d="M113.979 18.0367C113.835 17.3387 113.747 16.642 113.707 15.944C113.675 15.5963 113.668 15.2473 113.649 14.8984L113.631 13.8527L113.649 12.807C113.668 12.458 113.675 12.1103 113.707 11.7613C113.759 11.0646 113.833 10.3666 113.979 9.66992C114.123 10.3666 114.199 11.0646 114.25 11.7613C114.283 12.1103 114.288 12.458 114.308 12.807L114.327 13.8527L114.306 14.8984C114.288 15.2473 114.281 15.5963 114.248 15.944C114.211 16.642 114.125 17.3387 113.979 18.0367Z" fill="#E85D04"/>
<path d="M115.674 18.8861C115.53 18.0468 115.454 17.2087 115.403 16.3694C115.373 15.9503 115.363 15.53 115.345 15.111L115.326 13.8526L115.345 12.5942C115.363 12.1752 115.37 11.7561 115.403 11.3358C115.454 10.4977 115.53 9.65839 115.674 8.82031C115.818 9.65839 115.895 10.4977 115.946 11.3358C115.978 11.7561 115.985 12.1752 116.004 12.5942L116.022 13.8526L116.004 15.111C115.985 15.53 115.976 15.9503 115.946 16.3694C115.895 17.2087 115.818 18.0468 115.674 18.8861Z" fill="#E85D04"/>
<path d="M117.37 16.7802C117.234 16.2952 117.144 15.8068 117.1 15.3167C117.068 15.0722 117.061 14.8289 117.042 14.5844L117.021 13.852C117.021 13.3642 117.049 12.8764 117.098 12.3886C117.143 11.8981 117.233 11.4092 117.37 10.9238C117.508 11.4091 117.599 11.898 117.643 12.3886C117.692 12.8764 117.72 13.3642 117.718 13.852L117.699 14.5844C117.681 14.8289 117.674 15.0722 117.641 15.3167C117.598 15.8068 117.507 16.2953 117.37 16.7802Z" fill="#E85D04"/>
<path d="M119.067 16.2311C118.931 15.8381 118.84 15.4408 118.795 15.0415C118.74 14.6454 118.719 14.2493 118.719 13.8519C118.719 13.4545 118.74 13.0584 118.795 12.6623C118.838 12.2629 118.928 11.8655 119.067 11.4727C119.203 11.8657 119.294 12.263 119.338 12.6623C119.392 13.0584 119.413 13.4558 119.415 13.8519C119.417 14.248 119.392 14.6454 119.336 15.0415C119.292 15.4408 119.202 15.8381 119.067 16.2311Z" fill="#E85D04"/>
<path d="M120.762 15.4689C120.627 15.2047 120.536 14.9345 120.488 14.6614C120.389 14.124 120.389 13.5825 120.488 13.0451C120.536 12.7716 120.627 12.5009 120.762 12.2363C120.897 12.5009 120.989 12.7716 121.036 13.0451C121.135 13.5825 121.135 14.124 121.036 14.6614C120.989 14.9345 120.897 15.2047 120.762 15.4689Z" fill="#E85D04"/>
<path d="M122.459 16.0479C122.324 15.6857 122.232 15.3189 122.186 14.95C122.135 14.5844 122.111 14.2189 122.111 13.8521C122.111 13.4852 122.135 13.121 122.186 12.7542C122.231 12.3852 122.323 12.0184 122.459 11.6562C122.595 12.0185 122.686 12.3853 122.733 12.7542C122.784 13.121 122.807 13.4865 122.807 13.8521C122.807 14.2176 122.782 14.5844 122.731 14.95C122.684 15.3188 122.593 15.6855 122.459 16.0479Z" fill="#E85D04"/>
<path d="M124.155 17.2046C124.011 16.6455 123.923 16.0876 123.883 15.5285C123.853 15.2495 123.846 14.9706 123.825 14.6904L123.807 13.8523C123.807 13.2944 123.832 12.7353 123.883 12.1762C123.934 11.617 124.011 11.0591 124.155 10.5C124.301 11.0591 124.375 11.6183 124.426 12.1762C124.477 12.734 124.505 13.2944 124.503 13.8523L124.484 14.6904C124.466 14.9706 124.459 15.2495 124.426 15.5285C124.375 16.0876 124.299 16.6455 124.155 17.2046Z" fill="#E85D04"/>
<path d="M125.852 18.0367C125.708 17.3387 125.634 16.642 125.583 15.944C125.55 15.5963 125.543 15.2473 125.525 14.8984L125.504 13.8527L125.522 12.807C125.543 12.458 125.548 12.1103 125.58 11.7613C125.632 11.0646 125.708 10.3666 125.852 9.66992C125.998 10.3666 126.084 11.0646 126.126 11.7613C126.156 12.1103 126.163 12.458 126.184 12.807L126.2 13.8527L126.181 14.8984C126.163 15.2473 126.156 15.5963 126.123 15.944C126.072 16.642 125.998 17.3387 125.852 18.0367Z" fill="#E85D04"/>
<path d="M127.547 16.0479C127.413 15.6856 127.321 15.3188 127.273 14.95C127.222 14.5844 127.199 14.2189 127.199 13.8521C127.199 13.4852 127.222 13.121 127.273 12.7542C127.32 12.3853 127.412 12.0185 127.547 11.6562C127.683 12.0185 127.774 12.3853 127.821 12.7542C127.872 13.121 127.895 13.4865 127.895 13.8521C127.895 14.2176 127.872 14.5844 127.821 14.95C127.775 15.3189 127.683 15.6857 127.547 16.0479Z" fill="#E85D04"/>
<path d="M129.245 18.0367C129.101 17.3387 129.026 16.642 128.975 15.944C128.943 15.5963 128.936 15.2473 128.917 14.8984L128.896 13.8527L128.915 12.807C128.936 12.458 128.941 12.1103 128.973 11.7613C129.024 11.0646 129.101 10.3666 129.245 9.66992C129.391 10.3666 129.477 11.0646 129.518 11.7613C129.549 12.1103 129.556 12.458 129.576 12.807L129.593 13.8527L129.574 14.8984C129.556 15.2473 129.549 15.5963 129.516 15.944C129.465 16.642 129.391 17.3387 129.245 18.0367Z" fill="#E85D04"/>
</g>
<defs>
<clipPath id="clip0_2474_6467">
<rect width="130" height="27.7049" fill="white"/>
</clipPath>
</defs>
</svg>
