<svg width="26" height="25" viewBox="0 0 26 25" fill="none" xmlns="http://www.w3.org/2000/svg">
<path d="M22.8173 10.6224H21.9977V10.5801H12.8394V14.6505H18.5903C17.7513 17.0199 15.4968 18.7208 12.8394 18.7208C9.46765 18.7208 6.73391 15.9871 6.73391 12.6153C6.73391 9.24353 9.46765 6.50979 12.8394 6.50979C14.3958 6.50979 15.8118 7.09694 16.8899 8.05601L19.7681 5.17777C17.9507 3.484 15.5197 2.43945 12.8394 2.43945C7.21981 2.43945 2.66357 6.99569 2.66357 12.6153C2.66357 18.2349 7.21981 22.7911 12.8394 22.7911C18.459 22.7911 23.0153 18.2349 23.0153 12.6153C23.0153 11.933 22.945 11.267 22.8173 10.6224Z" fill="#FFC107"/>
<path d="M3.83691 7.87895L7.18019 10.3308C8.08482 8.09111 10.2757 6.50979 12.8395 6.50979C14.3959 6.50979 15.8118 7.09693 16.89 8.05601L19.7682 5.17777C17.9508 3.484 15.5198 2.43945 12.8395 2.43945C8.93094 2.43945 5.54137 4.64608 3.83691 7.87895Z" fill="#FF3D00"/>
<path d="M12.8393 22.7909C15.4677 22.7909 17.856 21.785 19.6617 20.1493L16.5123 17.4842C15.4563 18.2873 14.166 18.7216 12.8393 18.7206C10.1926 18.7206 7.94525 17.0329 7.09862 14.6777L3.78027 17.2344C5.46438 20.5299 8.88448 22.7909 12.8393 22.7909Z" fill="#4CAF50"/>
<path d="M22.8173 10.6223H21.9976V10.5801H12.8394V14.6504H18.5902C18.1889 15.7781 17.466 16.7635 16.5108 17.4849L16.5123 17.4839L19.6617 20.1489C19.4389 20.3514 23.0152 17.7032 23.0152 12.6152C23.0152 11.933 22.945 11.2669 22.8173 10.6223Z" fill="#1976D2"/>
</svg>
