<svg width="210" height="152" viewBox="0 0 210 152" fill="none" xmlns="http://www.w3.org/2000/svg">
<g clip-path="url(#clip0_365_7536)">
<path d="M76.1761 113.95V150.591H168.107C178.582 150.591 187.104 142.372 187.104 132.27C187.104 122.168 178.582 113.95 168.107 113.95H76.1761Z" fill="#F2F2F2"/>
<path d="M73.9198 150.309C73.9199 150.683 74.0687 151.041 74.3333 151.305C74.5979 151.569 74.9568 151.718 75.331 151.718H169.746C174.874 151.718 179.792 149.684 183.418 146.063C187.044 142.442 189.081 137.532 189.081 132.411C189.081 127.291 187.044 122.38 183.418 118.759C179.792 115.138 174.874 113.104 169.746 113.104H75.331C74.9567 113.104 74.5978 113.253 74.3331 113.517C74.0685 113.781 73.9198 114.14 73.9198 114.513C73.9198 114.887 74.0685 115.246 74.3331 115.51C74.5978 115.774 74.9567 115.923 75.331 115.923H169.746C174.126 115.923 178.326 117.66 181.422 120.752C184.519 123.844 186.258 128.038 186.258 132.411C186.258 136.784 184.519 140.978 181.422 144.07C178.326 147.162 174.126 148.9 169.746 148.9H75.331C74.9568 148.9 74.5979 149.048 74.3333 149.313C74.0687 149.577 73.9199 149.935 73.9198 150.309Z" fill="#BB8DF5"/>
<path d="M76.1755 122.405H174.966C175.041 122.405 175.112 122.376 175.165 122.323C175.218 122.27 175.248 122.198 175.248 122.123C175.248 122.049 175.218 121.977 175.165 121.924C175.112 121.871 175.041 121.842 174.966 121.842H76.1755C76.1006 121.842 76.0288 121.871 75.9759 121.924C75.923 121.977 75.8932 122.049 75.8932 122.123C75.8932 122.198 75.923 122.27 75.9759 122.323C76.0288 122.376 76.1006 122.405 76.1755 122.405Z" fill="#CCCCCC"/>
<path d="M76.1755 129.17H174.966C175.041 129.17 175.112 129.14 175.165 129.087C175.218 129.034 175.248 128.963 175.248 128.888C175.248 128.813 175.218 128.741 175.165 128.689C175.112 128.636 175.041 128.606 174.966 128.606H76.1755C76.1006 128.606 76.0288 128.636 75.9759 128.689C75.923 128.741 75.8932 128.813 75.8932 128.888C75.8932 128.963 75.923 129.034 75.9759 129.087C76.0288 129.14 76.1006 129.17 76.1755 129.17Z" fill="#CCCCCC"/>
<path d="M76.1755 135.934H174.966C175.041 135.934 175.112 135.905 175.165 135.852C175.218 135.799 175.248 135.727 175.248 135.652C175.248 135.578 175.218 135.506 175.165 135.453C175.112 135.4 175.041 135.371 174.966 135.371H76.1755C76.1006 135.371 76.0288 135.4 75.9759 135.453C75.923 135.506 75.8932 135.578 75.8932 135.652C75.8932 135.727 75.923 135.799 75.9759 135.852C76.0288 135.905 76.1006 135.934 76.1755 135.934Z" fill="#CCCCCC"/>
<path d="M76.1755 142.699H174.966C175.041 142.699 175.112 142.669 175.165 142.616C175.218 142.563 175.248 142.492 175.248 142.417C175.248 142.342 175.218 142.271 175.165 142.218C175.112 142.165 175.041 142.135 174.966 142.135H76.1755C76.1006 142.135 76.0288 142.165 75.9759 142.218C75.923 142.271 75.8932 142.342 75.8932 142.417C75.8932 142.492 75.923 142.563 75.9759 142.616C76.0288 142.669 76.1006 142.699 76.1755 142.699Z" fill="#CCCCCC"/>
<path d="M5.12815 120.847L28.1505 149.379L99.7354 91.7817C107.892 85.2192 109.363 73.4802 103.016 65.6142C96.6692 57.7482 84.8692 56.6876 76.7131 63.25L5.12815 120.847Z" fill="#F2F2F2"/>
<path d="M26.2153 150.574C26.4502 150.865 26.7912 151.051 27.1633 151.091C27.5354 151.131 27.9082 151.021 28.1997 150.787L101.719 91.6336C105.712 88.4209 108.263 83.7558 108.812 78.6646C109.36 73.5735 107.861 68.4733 104.644 64.486C101.426 60.4987 96.7545 57.951 91.6561 57.4034C86.5576 56.8557 81.4501 58.3529 77.4571 61.5656L3.93778 120.719C3.79334 120.835 3.67322 120.978 3.58428 121.141C3.49535 121.303 3.43934 121.482 3.41945 121.666C3.39957 121.85 3.4162 122.036 3.46839 122.214C3.52059 122.391 3.60733 122.557 3.72366 122.701C3.83998 122.845 3.98362 122.965 4.14635 123.054C4.30909 123.143 4.48773 123.198 4.67207 123.218C4.85642 123.238 5.04285 123.221 5.22073 123.169C5.3986 123.117 5.56441 123.03 5.70872 122.914L79.2281 63.7604C80.9164 62.4008 82.8565 61.3867 84.9375 60.7761C87.0184 60.1654 89.1995 59.9701 91.356 60.2013C93.5126 60.4325 95.6024 61.0858 97.506 62.1237C99.4097 63.1616 101.09 64.5638 102.451 66.2503C103.812 67.9368 104.826 69.8745 105.437 71.9527C106.048 74.031 106.243 76.209 106.01 78.3623C105.778 80.5157 105.123 82.6023 104.083 84.5028C103.043 86.4033 101.638 88.0806 99.9481 89.4389L26.4288 148.592C26.1375 148.827 25.9513 149.167 25.9113 149.539C25.8713 149.91 25.9806 150.283 26.2153 150.574Z" fill="#BB8DF5"/>
<path d="M10.4395 127.431L87.3655 65.5367C87.3944 65.5135 87.4184 65.4848 87.4362 65.4523C87.4539 65.4199 87.4651 65.3842 87.4691 65.3474C87.4731 65.3106 87.4697 65.2734 87.4593 65.2379C87.4488 65.2023 87.4315 65.1692 87.4082 65.1404C87.385 65.1116 87.3563 65.0876 87.3237 65.0699C87.2912 65.0521 87.2555 65.041 87.2186 65.037C87.1818 65.0331 87.1445 65.0364 87.1089 65.0468C87.0734 65.0572 87.0402 65.0746 87.0113 65.0978L10.0853 126.992C10.0564 127.015 10.0323 127.044 10.0145 127.077C9.9967 127.109 9.98547 127.145 9.98148 127.182C9.97749 127.218 9.9808 127.256 9.99123 127.291C10.0017 127.327 10.019 127.36 10.0423 127.389C10.0656 127.418 10.0943 127.442 10.1269 127.459C10.1594 127.477 10.1952 127.488 10.2321 127.492C10.269 127.496 10.3063 127.493 10.3419 127.482C10.3774 127.472 10.4106 127.454 10.4395 127.431Z" fill="#CCCCCC"/>
<path d="M14.6907 132.699L91.6168 70.8041C91.675 70.7572 91.7121 70.6891 91.7201 70.6148C91.728 70.5406 91.7061 70.4662 91.6592 70.408C91.6123 70.3499 91.5441 70.3127 91.4698 70.3046C91.3954 70.2966 91.3209 70.3184 91.2626 70.3652L14.3365 132.26C14.3076 132.283 14.2836 132.311 14.2657 132.344C14.2479 132.376 14.2367 132.412 14.2327 132.449C14.2287 132.486 14.232 132.523 14.2425 132.559C14.2529 132.594 14.2703 132.627 14.2935 132.656C14.3168 132.685 14.3456 132.709 14.3781 132.727C14.4107 132.744 14.4464 132.756 14.4833 132.76C14.5202 132.763 14.5575 132.76 14.5931 132.75C14.6287 132.739 14.6618 132.722 14.6907 132.699Z" fill="#CCCCCC"/>
<path d="M18.9434 137.966L95.8694 76.0715C95.9277 76.0246 95.965 75.9565 95.973 75.8822C95.981 75.8078 95.9591 75.7334 95.9121 75.6752C95.8652 75.617 95.797 75.5798 95.7225 75.5718C95.6481 75.5638 95.5735 75.5856 95.5153 75.6325L18.5892 137.527C18.5603 137.55 18.5363 137.579 18.5185 137.611C18.5008 137.644 18.4896 137.679 18.4856 137.716C18.4817 137.753 18.485 137.79 18.4954 137.826C18.5059 137.861 18.5232 137.894 18.5465 137.923C18.5697 137.952 18.5984 137.976 18.631 137.994C18.6635 138.012 18.6992 138.023 18.7361 138.027C18.7729 138.031 18.8102 138.027 18.8458 138.017C18.8813 138.006 18.9145 137.989 18.9434 137.966Z" fill="#CCCCCC"/>
<path d="M23.1924 143.233L100.118 81.3389C100.147 81.3157 100.171 81.287 100.189 81.2545C100.207 81.222 100.218 81.1864 100.222 81.1496C100.226 81.1128 100.223 81.0756 100.212 81.04C100.202 81.0045 100.184 80.9714 100.161 80.9426C100.138 80.9138 100.109 80.8898 100.077 80.8721C100.044 80.8543 100.008 80.8432 99.9716 80.8392C99.9347 80.8352 99.8974 80.8386 99.8619 80.849C99.8263 80.8594 99.7931 80.8767 99.7643 80.9L22.8382 142.794C22.8093 142.818 22.7852 142.846 22.7674 142.879C22.7496 142.911 22.7384 142.947 22.7344 142.984C22.7304 143.021 22.7337 143.058 22.7442 143.093C22.7546 143.129 22.772 143.162 22.7952 143.191C22.8185 143.22 22.8473 143.244 22.8798 143.261C22.9124 143.279 22.9481 143.29 22.985 143.294C23.0219 143.298 23.0592 143.295 23.0948 143.284C23.1304 143.274 23.1635 143.257 23.1924 143.233Z" fill="#CCCCCC"/>
<path d="M0.282257 152H209.718C209.793 152 209.864 151.97 209.917 151.917C209.97 151.865 210 151.793 210 151.718C210 151.643 209.97 151.572 209.917 151.519C209.864 151.466 209.793 151.436 209.718 151.436H0.282257C0.207397 151.436 0.135605 151.466 0.0826721 151.519C0.0297394 151.572 0 151.643 0 151.718C0 151.793 0.0297394 151.865 0.0826721 151.917C0.135605 151.97 0.207397 152 0.282257 152Z" fill="#CCCCCC"/>
<path d="M114.573 110.098L117.799 110.098L119.334 97.6696L114.571 97.6701L114.573 110.098Z" fill="#FFB8B8"/>
<path d="M120.106 109.178H113.883V113.09H124.024C124.024 112.576 123.923 112.068 123.726 111.593C123.529 111.118 123.241 110.687 122.877 110.324C122.513 109.96 122.081 109.672 121.606 109.475C121.13 109.279 120.621 109.178 120.106 109.178Z" fill="#2F2E41"/>
<path d="M147.54 110.098L150.767 110.098L152.302 97.6696L147.539 97.6701L147.54 110.098Z" fill="#FFB8B8"/>
<path d="M153.073 109.178H146.85V113.09H156.991C156.991 112.576 156.89 112.068 156.693 111.593C156.496 111.118 156.207 110.687 155.844 110.324C155.48 109.96 155.048 109.672 154.572 109.475C154.097 109.279 153.587 109.178 153.073 109.178Z" fill="#2F2E41"/>
<path d="M136.763 17.907V16.4978C136.763 14.087 135.804 11.775 134.097 10.0703C132.389 8.36563 130.074 7.40796 127.66 7.40796C125.246 7.40796 122.93 8.36563 121.223 10.0703C119.516 11.775 118.557 14.087 118.557 16.4978V17.907C118.557 19.645 119.248 21.3119 120.479 22.5408C121.71 23.7697 123.379 24.4602 125.12 24.4602H130.2C131.062 24.4602 131.915 24.2907 132.712 23.9613C133.508 23.632 134.231 23.1493 134.841 22.5408C135.45 21.9323 135.933 21.2099 136.263 20.4148C136.593 19.6198 136.763 18.7676 136.763 17.907Z" fill="#2F2E41"/>
<path d="M127.659 24.9451C123.831 24.9451 120.727 21.8458 120.727 18.0225C120.727 14.1993 123.831 11.0999 127.659 11.0999C131.488 11.0999 134.592 14.1993 134.592 18.0225C134.592 21.8458 131.488 24.9451 127.659 24.9451Z" fill="#FFB8B8"/>
<path d="M165.367 41.8146C165.086 41.5494 164.75 41.3489 164.382 41.2274C164.015 41.1059 163.626 41.0663 163.241 41.1114C162.857 41.1564 162.487 41.2851 162.158 41.4883C161.829 41.6915 161.549 41.9643 161.336 42.2874L155.394 41.1649L153.83 44.6048L162.244 46.0723C162.812 46.3922 163.477 46.4931 164.114 46.356C164.75 46.2189 165.315 45.8533 165.7 45.3285C166.085 44.8037 166.263 44.1561 166.202 43.5085C166.141 42.8609 165.844 42.2582 165.367 41.8146Z" fill="#FFB8B8"/>
<path d="M132.987 29.4223L142.732 35.8329L159.176 41.0763C159.394 41.1462 159.581 41.2895 159.705 41.4816C159.829 41.6737 159.883 41.9028 159.857 42.13L159.498 45.2153C159.482 45.3519 159.438 45.4836 159.368 45.602C159.298 45.7205 159.204 45.823 159.092 45.9031C158.981 45.9832 158.853 46.0391 158.718 46.0672C158.584 46.0952 158.444 46.0949 158.31 46.0661L142.834 42.7535C142.085 42.5941 141.376 42.2828 140.753 41.8388L129.805 34.0605C129.408 33.7769 129.091 33.3957 128.886 32.9538C128.68 32.5119 128.592 32.0243 128.631 31.5386C128.671 31.0522 128.837 30.5845 129.113 30.1818C129.39 29.779 129.766 29.4549 130.205 29.2413C130.645 29.0278 131.132 28.9322 131.62 28.9639C132.108 28.9957 132.579 29.1536 132.987 29.4223Z" fill="#F76F45"/>
<path d="M117.742 106.572C117.99 106.572 118.232 106.5 118.44 106.364C118.647 106.229 118.811 106.037 118.91 105.81L133.703 69.3098C133.738 69.2306 133.796 69.1639 133.87 69.1186C133.943 69.0734 134.029 69.0517 134.115 69.0566C134.202 69.0614 134.284 69.0926 134.353 69.1458C134.421 69.199 134.471 69.2718 134.496 69.3544L146.565 104.889C146.616 105.054 146.7 105.207 146.813 105.339C146.925 105.471 147.063 105.578 147.219 105.654C147.374 105.731 147.544 105.774 147.717 105.783C147.89 105.791 148.063 105.764 148.225 105.704L152.272 104.188C152.492 104.107 152.685 103.966 152.829 103.782C152.973 103.597 153.064 103.377 153.09 103.144C154.911 87.3059 139.033 47.3285 138.873 46.9266L138.828 46.8153L124.355 50.0123L124.325 50.045C118.551 56.3354 113.804 96.0104 112.911 103.9C112.878 104.185 112.943 104.473 113.095 104.716C113.248 104.959 113.479 105.143 113.75 105.238L117.322 106.499C117.457 106.547 117.599 106.572 117.742 106.572Z" fill="#2F2E41"/>
<path d="M130.212 51.2991C133.719 51.2991 137.628 50.6009 138.832 47.7193L138.859 47.6531L138.822 47.5918C137.872 46.0355 136.617 43.3807 137.291 42.8824C138.621 41.901 139.266 40.2865 139.208 38.0837C139.084 33.3018 135.821 29.0563 131.089 27.5192C129.768 27.097 128.424 26.7514 127.063 26.4841C126.071 26.2842 125.047 26.3062 124.064 26.5485C123.082 26.7907 122.165 27.2473 121.381 27.8854C120.586 28.5276 119.943 29.3376 119.5 30.2573C119.056 31.1769 118.821 32.1833 118.813 33.2041C118.764 38.3144 119.551 45.4319 123.587 50.3184C123.776 50.5451 124.039 50.6979 124.33 50.75C126.271 51.1006 128.239 51.2843 130.212 51.2991Z" fill="#F76F45"/>
<path d="M126.411 54.5287C126.425 53.8192 126.158 53.1325 125.668 52.618C125.178 52.1034 124.505 51.8026 123.795 51.7809C123.649 51.778 123.504 51.7871 123.36 51.808L120.219 46.5818L116.606 47.7L121.144 55.0186C121.272 55.6049 121.593 56.1318 122.055 56.5153C122.517 56.8989 123.094 57.1172 123.695 57.1354C124.045 57.1443 124.394 57.0837 124.72 56.9571C125.047 56.8306 125.345 56.6407 125.598 56.3983C125.85 56.1559 126.052 55.8659 126.192 55.545C126.331 55.2241 126.406 54.8787 126.411 54.5287Z" fill="#FFB8B8"/>
<path d="M119.209 52.4179C119.489 52.5024 119.79 52.4872 120.06 52.3751L122.183 51.4969C122.36 51.4237 122.518 51.3114 122.645 51.1685C122.772 51.0256 122.865 50.8558 122.918 50.6718C122.97 50.4878 122.98 50.2943 122.946 50.1059C122.913 49.9174 122.838 49.7389 122.726 49.5837L117.224 41.961C117.159 41.8703 117.132 41.7576 117.15 41.6475C117.167 41.5373 117.227 41.4385 117.317 41.3725L123.48 36.875C124.195 36.3547 124.703 35.5983 124.913 34.7396C125.123 33.881 125.023 32.9755 124.629 32.1834C124.216 31.3415 123.502 30.685 122.628 30.3442C121.754 30.0034 120.783 30.0031 119.91 30.3435L119.873 30.3646L113.286 35.5663C112.671 35.8065 112.119 36.1857 111.675 36.674C111.231 37.1624 110.906 37.7469 110.725 38.3817C110.545 39.0166 110.513 39.6847 110.634 40.3338C110.755 40.9829 111.024 41.5955 111.421 42.1237L118.556 51.962C118.72 52.1797 118.948 52.3395 119.209 52.4179Z" fill="#F76F45"/>
<path d="M133.8 16.075V12.6403L127.659 9.96271L121.804 12.6403V16.075C121.804 16.2245 121.863 16.3679 121.969 16.4736C122.075 16.5794 122.219 16.6387 122.368 16.6387H133.235C133.385 16.6387 133.529 16.5794 133.634 16.4736C133.74 16.3679 133.8 16.2245 133.8 16.075Z" fill="#2F2E41"/>
<path d="M127.941 7.86363C128.844 4.97786 126.948 1.67063 124.144 0.528367C121.341 -0.613895 117.987 0.184581 115.622 2.07177C113.256 3.95896 111.789 6.78561 111.011 9.70753C110.234 12.6294 110.086 15.6763 109.943 18.6962C106.498 19.328 104.155 23.4072 105.349 26.6948C106.542 29.9824 110.958 31.6156 114.008 29.8973C117.057 28.179 117.941 23.5599 115.74 20.8403C114.698 19.5534 114.116 17.9564 114.086 16.302C114.056 14.6477 114.58 13.0307 115.574 11.7071C116.569 10.3835 117.977 9.429 119.576 8.99476C121.175 8.56051 122.873 8.67135 124.402 9.30972C126.099 10.0186 128.229 8.17684 127.941 7.86363Z" fill="#2F2E41"/>
<path d="M166.64 28.4907C170.764 28.4637 174.836 27.5731 178.593 25.8765C178.817 25.777 179.007 25.6146 179.14 25.4092C179.273 25.2039 179.343 24.9643 179.342 24.7198V14.4552C179.341 14.119 179.207 13.7966 178.969 13.5588C178.731 13.321 178.408 13.1873 178.072 13.1869H155.209C154.872 13.1873 154.549 13.321 154.311 13.5588C154.073 13.7966 153.939 14.119 153.939 14.4552V24.7198C153.938 24.9643 154.008 25.2039 154.141 25.4092C154.274 25.6146 154.463 25.777 154.687 25.8765C158.444 27.5731 162.517 28.4637 166.64 28.4907Z" fill="#BB8DF5"/>
<path d="M166.644 20.1751C166.813 20.1752 166.981 20.1416 167.138 20.076L185.268 12.4379C185.501 12.3394 185.7 12.1732 185.839 11.9608C185.977 11.7484 186.048 11.4995 186.044 11.2461C186.039 10.9928 185.959 10.7466 185.812 10.5394C185.666 10.3322 185.462 10.1734 185.224 10.0835L167.094 3.21539C166.802 3.10426 166.479 3.10495 166.188 3.21732L148.3 10.0854C148.064 10.176 147.861 10.3349 147.716 10.5416C147.571 10.7483 147.491 10.9935 147.486 11.2459C147.482 11.4982 147.553 11.7462 147.69 11.9581C147.827 12.1701 148.025 12.3363 148.257 12.4355L166.144 20.0735C166.302 20.1407 166.472 20.1752 166.644 20.1751Z" fill="#BB8DF5"/>
<path d="M177.224 26.5749C176.289 26.5749 175.531 25.8178 175.531 24.8838C175.531 23.9498 176.289 23.1927 177.224 23.1927C178.16 23.1927 178.918 23.9498 178.918 24.8838C178.918 25.8178 178.16 26.5749 177.224 26.5749Z" fill="#3F3D56"/>
<path opacity="0.2" d="M148.195 11.3514L166.083 18.9894C166.222 19.0489 166.372 19.0798 166.524 19.0802C166.676 19.0805 166.826 19.0504 166.965 18.9915L185.095 11.3536C185.323 11.26 185.513 11.0932 185.635 10.8798C185.715 11.0182 185.765 11.172 185.781 11.331C185.796 11.49 185.778 11.6506 185.727 11.802C185.676 11.9535 185.593 12.0923 185.484 12.2094C185.376 12.3265 185.243 12.4191 185.095 12.481L166.965 20.1189C166.826 20.1778 166.676 20.208 166.524 20.2076C166.372 20.2072 166.222 20.1763 166.083 20.1168L148.195 12.4788C148.048 12.4163 147.917 12.3234 147.808 12.2063C147.7 12.0892 147.618 11.9505 147.568 11.7994C147.517 11.6482 147.499 11.4881 147.515 11.3296C147.531 11.1711 147.581 11.0178 147.66 10.8798C147.782 11.0915 147.97 11.2573 148.195 11.3514Z" fill="black"/>
<path d="M177.082 24.8772C177.007 24.8772 176.935 24.8475 176.882 24.7946C176.829 24.7417 176.8 24.6701 176.8 24.5953V15.1641L167.491 11.7775C167.416 11.7787 167.343 11.75 167.29 11.698C167.236 11.6459 167.205 11.5746 167.204 11.4999C167.203 11.4251 167.232 11.353 167.284 11.2994C167.336 11.2457 167.407 11.215 167.482 11.2138L176.791 14.6004C176.866 14.5986 176.941 14.6121 177.01 14.64C177.08 14.6678 177.143 14.7095 177.196 14.7625C177.249 14.8148 177.292 14.8773 177.321 14.9463C177.35 15.0152 177.364 15.0893 177.364 15.1641V24.5953C177.364 24.6701 177.335 24.7417 177.282 24.7946C177.229 24.8475 177.157 24.8772 177.082 24.8772Z" fill="#3F3D56"/>
</g>
<defs>
<clipPath id="clip0_365_7536">
<rect width="210" height="152" fill="white" transform="matrix(-1 0 0 1 210 0)"/>
</clipPath>
</defs>
</svg>
