<svg width="210" height="200" viewBox="0 0 210 200" fill="none" xmlns="http://www.w3.org/2000/svg">
<g opacity="0.8">
<path opacity="0.5" d="M79.2001 29.1667C76.5653 25.5775 71.1224 29.4595 73.5836 33.168C74.2234 34.1331 74.9281 35.0765 75.6003 35.9765C83.6998 46.9069 87.8958 60.1903 91.5064 73.3218C92.3955 76.5749 93.2521 79.9798 92.2438 83.1678C93.6967 74.6339 92.7533 65.8181 90.5631 57.4577C88.3729 49.0973 84.9792 41.0839 81.4662 33.1789C80.8536 31.7658 80.094 30.421 79.2001 29.1667Z" fill="#67A24A"/>
<path d="M26.6354 52.1664C21.2141 52.0038 20.4768 60.2883 25.9197 60.722C27.351 60.8413 28.7822 60.8738 30.1592 60.9064C46.8893 61.3618 62.687 67.4125 77.9208 73.9187C81.6506 75.5127 85.5106 77.3127 87.755 80.7393C80.9025 72.7909 71.8706 66.9679 62.2749 62.6955C52.6793 58.4232 42.4438 55.6038 32.2193 52.9363C30.3911 52.4796 28.519 52.2215 26.6354 52.1664Z" fill="#67A24A"/>
<path opacity="0.2" d="M28.1424 72.5415C24.6944 72.6716 25.4751 77.5729 28.9447 77.6054C29.8555 77.6054 30.7662 77.6055 31.6336 77.5404C42.1835 77.1066 52.9935 80.0236 63.4783 83.2224C66.0588 84.014 68.7695 84.9032 70.6452 86.8334C65.0757 82.5352 58.766 79.2937 52.0285 77.2693C45.3941 75.2951 38.6249 73.8056 31.7746 72.8126C30.5757 72.603 29.3591 72.5122 28.1424 72.5415Z" fill="#67A24A"/>
<path opacity="0.5" d="M98.7709 163.714C99.7467 167.032 104.301 165.059 103.466 161.686C103.249 160.797 102.989 159.93 102.739 159.106C99.7034 148.978 99.8443 137.787 100.343 126.835C100.473 124.146 100.658 121.294 102.056 118.995C99.2772 125.457 97.7079 132.374 97.4264 139.403C97.1558 146.322 97.3914 153.251 98.1312 160.136C98.2246 161.347 98.4388 162.546 98.7709 163.714Z" fill="#67A24A"/>
<path opacity="0.2" d="M34.4311 24.5692C32.3602 24.2005 32.1975 27.2258 34.2684 27.6921C34.8106 27.8114 35.3527 27.8981 35.884 27.9849C42.2377 29.0692 48.3204 32.1922 54.1754 35.4344C55.6844 36.1217 56.9994 37.1723 58.0029 38.4923C55.2177 35.2226 51.8593 32.4886 48.0927 30.4247C44.3827 28.4022 40.5307 26.6517 36.5671 25.1872C35.8773 24.9109 35.1618 24.7038 34.4311 24.5692Z" fill="#67A24A"/>
<path d="M2.35873 104.768C-2.91076 107.479 1.54553 114.929 6.95598 112.456C8.37635 111.817 9.75335 111.09 11.0761 110.407C27.1882 102.047 45.8917 98.967 64.3024 96.6031C68.8129 96.0176 73.6271 95.5188 77.8123 97.2971C66.4167 94.044 54.2947 93.8272 42.5739 95.1826C30.8531 96.5381 19.4575 99.5201 8.17034 102.589C6.16264 103.111 4.21491 103.842 2.35873 104.768Z" fill="#67A24A"/>
<path opacity="0.5" d="M17.419 133.764C13.6241 137.288 19.5875 141.463 23.5125 138.101C24.5967 137.212 25.5401 136.28 26.4942 135.391C38.0307 124.547 53.2862 116.837 68.4766 109.735C72.2065 107.989 87.5487 106.21 91.6472 106.308C80.9456 107.262 59.1195 110.645 49.3612 114.983C39.8342 119.511 30.6258 124.681 21.7993 130.457C20.2362 131.416 18.7693 132.523 17.419 133.764Z" fill="#67A24A"/>
<path d="M44.4388 180.034C43.3545 185.098 50.5648 185.163 51.9093 180.11C52.2563 178.798 52.5382 177.464 52.8093 176.195C56.1488 160.711 64.3132 145.692 72.7704 131.205C74.8522 127.659 86.4646 117.466 89.8908 115.222C81.6288 122.086 65.5492 137.267 60.0629 146.419C54.8016 155.567 50.1613 165.058 46.1735 174.829C45.4307 176.505 44.8498 178.247 44.4388 180.034Z" fill="#67A24A"/>
<path d="M98.8252 2.38332C96.2446 -2.87582 88.8717 1.45077 91.2353 6.84004C91.8534 8.26055 92.5365 9.63769 93.1979 10.9498C101.135 27.0308 103.867 45.6492 105.916 63.8882C106.415 68.3666 106.838 73.1486 105.016 77.2691C108.345 66.0243 108.789 54.0097 107.64 42.3745C106.491 30.7393 103.769 19.3969 100.907 8.16296C100.41 6.17098 99.7127 4.23452 98.8252 2.38332Z" fill="#67A24A"/>
<path d="M57.7317 11.3399C57.867 11.4192 58.0196 11.4639 58.1763 11.4701C58.4582 11.4701 58.6642 11.1773 58.7834 10.917C59.4232 9.5182 59.0546 7.66395 60.0521 6.57959C61.0625 7.78855 61.8749 9.15005 62.4591 10.6134L66.2431 9.4423C66.4197 10.1764 66.4474 10.9385 66.3245 11.6835C66.2016 12.4285 65.9306 13.1413 65.5276 13.7797C66.1914 14.0691 66.7947 14.4812 67.3058 14.9942C67.5618 15.2502 67.7411 15.5727 67.8235 15.9253C67.9059 16.2779 67.8881 16.6465 67.772 16.9894C66.8999 17.2039 66.0021 17.2952 65.1047 17.2605C65.246 18.9251 65.1474 20.6013 64.8119 22.2377C64.803 22.3591 64.7697 22.4774 64.7138 22.5855C64.6579 22.6936 64.5806 22.7893 64.4867 22.8667C64.2156 23.0402 63.847 22.8667 63.5651 22.7149C62.2625 21.9197 61.1899 20.7984 60.4532 19.4618L59.0112 22.7474C58.912 23.0967 58.6882 23.3976 58.3823 23.5932C58.1675 23.6657 57.9347 23.6646 57.7207 23.59C57.5067 23.5153 57.3236 23.3715 57.2005 23.1811C56.9688 22.7949 56.8279 22.3611 56.7884 21.9124L56.2572 18.6594C56.251 18.4926 56.19 18.3325 56.0837 18.2039C55.9254 18.084 55.7287 18.0261 55.5307 18.0413C54.1862 18.0413 52.8526 17.9871 51.519 18.0413C51.2913 17.3364 51.996 16.675 52.6791 16.3714C53.3621 16.0677 54.1754 15.8509 54.5223 15.1894C55.2162 13.834 53.4381 11.9363 54.1753 10.7869C55.1078 9.40977 56.5607 10.7544 57.7317 11.3399Z" fill="#67A24A"/>
<path opacity="0.5" d="M130.8 29.1667C133.435 25.5775 138.867 29.4595 136.417 33.168C135.766 34.1331 135.072 35.0765 134.4 35.9765C126.3 46.9069 122.104 60.1903 118.483 73.3218C117.594 76.5749 116.737 79.9798 117.756 83.1678C116.304 74.6339 117.247 65.8181 119.437 57.4577C121.799 49.1307 124.838 41.0107 128.523 33.1789C129.144 31.7676 129.907 30.4233 130.8 29.1667Z" fill="#67A24A"/>
<path d="M183.354 52.1664C188.775 52.0038 189.513 60.2883 184.07 60.722C182.649 60.8413 181.207 60.8738 179.841 60.9064C163.1 61.3618 147.313 67.4125 132.079 73.9187C128.349 75.5127 124.424 77.3127 122.245 80.7393C129.098 72.7909 138.119 66.9679 147.725 62.6955C157.332 58.4232 167.545 55.6038 177.781 52.9363C179.605 52.4804 181.474 52.2223 183.354 52.1664Z" fill="#67A24A"/>
<path opacity="0.5" d="M181.847 72.5414C185.306 72.6715 184.525 77.5728 181.055 77.6054C180.145 77.6054 179.234 77.6054 178.366 77.5403C167.806 77.1066 157.007 80.0235 146.522 83.2224C143.941 84.0139 141.22 84.9031 139.355 86.8333C144.924 82.5352 151.234 79.2937 157.971 77.2692C164.606 75.2951 171.375 73.8056 178.225 72.8125C179.421 72.6032 180.634 72.5123 181.847 72.5414Z" fill="#67A24A"/>
<path opacity="0.2" d="M175.569 24.5692C177.64 24.2005 177.802 27.2258 175.731 27.6921C175.189 27.8114 174.647 27.8981 174.116 27.9849C167.762 29.0692 161.669 32.1922 155.814 35.4344C154.308 36.122 152.997 37.1727 151.997 38.4923C154.778 35.2228 158.133 32.4887 161.896 30.4247C165.611 28.4041 169.467 26.6537 173.433 25.1872C174.123 24.9109 174.838 24.7038 175.569 24.5692Z" fill="#67A24A"/>
<path opacity="0.2" d="M121.475 170.003C121.009 172.064 118.157 171.034 118.537 168.919C118.635 168.377 118.765 167.835 118.884 167.314C120.326 161.025 119.806 154.215 119.068 147.557C119.011 145.901 118.546 144.284 117.713 142.851C119.663 146.679 120.894 150.832 121.345 155.104C121.78 159.311 121.907 163.544 121.725 167.77C121.719 168.521 121.636 169.269 121.475 170.003Z" fill="#67A24A"/>
<path opacity="0.5" d="M174.235 156.33C175.862 159.084 171.872 158.889 170.115 156.146C169.66 155.419 169.237 154.693 168.836 153.977C163.892 145.562 156.378 137.256 148.799 129.221C147.007 127.135 144.913 125.329 142.586 123.864C148.501 127.891 153.955 132.557 158.85 137.777C163.707 142.862 168.001 148.165 172.208 153.446C172.946 154.361 173.624 155.325 174.235 156.33Z" fill="#67A24A"/>
<path opacity="0.2" d="M29.888 156.33C28.2616 159.084 32.2517 158.889 33.9973 156.146C34.4636 155.419 34.8864 154.693 35.2876 153.977C40.2318 145.562 47.7457 137.256 55.3247 129.221C57.1139 127.133 59.2086 125.327 61.5375 123.864C55.6207 127.889 50.1663 132.555 45.2737 137.777C40.4162 142.862 36.1117 148.165 31.9156 153.446C31.177 154.361 30.4997 155.325 29.888 156.33Z" fill="#67A24A"/>
<path opacity="0.2" d="M82.6805 170.003C83.1467 172.064 85.9983 171.034 85.6188 168.919C85.5212 168.377 85.3911 167.835 85.2718 167.314C83.8298 161.025 84.3502 154.215 85.0875 147.557C85.1445 145.901 85.61 144.284 86.4429 142.851C84.4925 146.679 83.2614 150.832 82.8106 155.104C82.3759 159.311 82.249 163.544 82.4311 167.77C82.4366 168.521 82.5202 169.269 82.6805 170.003Z" fill="#67A24A"/>
<path opacity="0.2" d="M158.937 45.2154C161.007 44.8575 161.17 47.8829 159.099 48.3383C158.557 48.4576 158.015 48.5552 157.484 48.6419C151.13 49.7263 145.047 52.8384 139.181 56.0807C137.677 56.7751 136.366 57.829 135.365 59.1494C138.144 55.8735 141.504 53.1385 145.275 51.0818C148.983 49.0548 152.835 47.3042 156.801 45.8443C157.49 45.5644 158.205 45.3537 158.937 45.2154Z" fill="#67A24A"/>
<path opacity="0.2" d="M139.539 4.67138C141.328 3.58702 142.607 6.30876 140.851 7.5124C140.396 7.81602 139.919 8.1088 139.474 8.39073C133.977 11.7739 129.499 16.9355 125.281 22.1296C124.135 23.3288 123.31 24.7985 122.885 26.4019C124.238 22.3249 126.329 18.5316 129.054 15.2114C131.736 11.9446 134.657 8.88188 137.793 6.04851C138.329 5.53345 138.913 5.07219 139.539 4.67138Z" fill="#67A24A"/>
<path d="M207.641 104.768C212.911 107.479 208.454 114.929 203.044 112.456C201.624 111.817 200.236 111.09 198.924 110.407C182.812 102.047 164.097 98.967 145.698 96.6031C141.187 96.0176 136.373 95.5188 132.188 97.2971C143.572 94.044 155.705 93.8272 167.426 95.1826C179.147 96.5381 190.543 99.5201 201.83 102.589C203.837 103.113 205.784 103.844 207.641 104.768Z" fill="#67A24A"/>
<path opacity="0.5" d="M192.581 133.764C196.365 137.288 190.412 141.463 186.477 138.101C185.392 137.212 184.449 136.28 183.506 135.391C171.958 124.547 156.703 116.837 141.523 109.735C137.793 107.989 122.44 106.21 118.353 106.308C129.054 107.262 150.88 110.645 160.639 114.983C170.169 119.511 179.381 124.681 188.211 130.457C189.771 131.416 191.234 132.524 192.581 133.764Z" fill="#67A24A"/>
<path d="M147.92 185.813C148.387 190.964 141.187 190.151 140.493 184.957C140.309 183.601 140.2 182.235 140.092 180.945C138.715 165.167 132.502 149.249 125.921 133.818C124.305 130.034 114.059 118.475 110.936 115.807C118.277 123.658 132.329 140.747 136.622 150.507C140.699 160.237 144.111 170.232 146.836 180.424C147.365 182.183 147.728 183.987 147.92 185.813Z" fill="#67A24A"/>
<path d="M152.257 11.3399C152.122 11.4192 151.969 11.4639 151.813 11.4701C151.52 11.4701 151.325 11.1773 151.206 10.917C150.555 9.5182 150.935 7.66395 149.937 6.57959C148.927 7.78855 148.114 9.15005 147.53 10.6134L143.746 9.44231C143.567 10.1762 143.538 10.9387 143.661 11.6841C143.784 12.4295 144.056 13.1423 144.462 13.7797C143.794 14.0691 143.188 14.481 142.672 14.9942C142.42 15.2527 142.245 15.5757 142.164 15.9278C142.084 16.2798 142.102 16.6472 142.217 16.9894C143.089 17.2045 143.987 17.2957 144.884 17.2605C144.745 18.9246 144.84 20.6 145.166 22.2377C145.157 22.3876 145.197 22.5364 145.278 22.6625C145.36 22.7885 145.48 22.8852 145.62 22.9385C145.76 22.9917 145.914 22.9987 146.059 22.9585C146.203 22.9183 146.331 22.8329 146.424 22.7149C147.727 21.9197 148.799 20.7984 149.536 19.4618L150.945 22.8233C151.041 23.1745 151.265 23.4766 151.574 23.6691C151.787 23.7428 152.019 23.7423 152.232 23.6674C152.444 23.5926 152.625 23.4479 152.745 23.257C152.985 22.8738 153.13 22.4389 153.168 21.9883L153.689 18.7353C153.704 18.5686 153.768 18.41 153.873 18.2798C154.031 18.1599 154.228 18.1021 154.426 18.1172C155.759 18.1172 157.104 18.063 158.438 18.1172C158.665 17.4123 157.95 16.7509 157.267 16.4473C156.584 16.1436 155.781 15.9268 155.434 15.2653C154.74 13.9099 156.518 12.0122 155.77 10.8628C154.892 9.40977 153.439 10.7544 152.257 11.3399Z" fill="#67A24A"/>
<path opacity="0.2" d="M163.685 167.249C163.55 167.328 163.398 167.373 163.241 167.379C162.948 167.379 162.753 167.086 162.634 166.826C161.994 165.427 162.363 163.573 161.365 162.435C160.355 163.644 159.542 165.005 158.958 166.468L155.174 165.297C154.997 166.031 154.97 166.793 155.093 167.538C155.216 168.283 155.487 168.996 155.89 169.635C155.226 169.924 154.623 170.336 154.112 170.849C153.856 171.108 153.676 171.432 153.594 171.786C153.512 172.14 153.53 172.51 153.645 172.855C154.519 173.061 155.416 173.148 156.313 173.115C156.171 174.78 156.27 176.456 156.605 178.093C156.614 178.214 156.648 178.332 156.704 178.441C156.759 178.549 156.837 178.644 156.931 178.722C157.202 178.906 157.57 178.722 157.852 178.57C159.162 177.76 160.235 176.619 160.964 175.263L162.374 178.635C162.476 178.98 162.699 179.276 163.002 179.47C163.216 179.543 163.448 179.544 163.662 179.471C163.876 179.399 164.06 179.257 164.184 179.069C164.414 178.678 164.555 178.241 164.596 177.789L165.128 174.536C165.134 174.369 165.195 174.209 165.301 174.081C165.459 173.961 165.656 173.903 165.854 173.918C167.188 173.918 168.532 173.918 169.866 173.918C170.093 173.202 169.389 172.541 168.706 172.248C168.023 171.955 167.209 171.717 166.862 171.055C166.168 169.7 167.947 167.802 167.209 166.653C166.353 165.319 164.856 166.664 163.685 167.249Z" fill="#67A24A"/>
<path d="M195.769 62.7389C195.63 62.8194 195.474 62.8641 195.313 62.869C195.031 62.869 194.836 62.5762 194.717 62.316C194.066 60.9172 194.435 59.0629 193.448 57.9243C192.44 59.1348 191.628 60.496 191.041 61.9581L187.257 60.787C187.078 61.5209 187.049 62.2834 187.172 63.0288C187.295 63.7742 187.567 64.487 187.973 65.1245C187.306 65.4149 186.7 65.8267 186.184 66.3389C185.932 66.5999 185.756 66.9243 185.674 67.2776C185.592 67.6308 185.607 67.9997 185.718 68.345C186.594 68.5558 187.495 68.6434 188.396 68.6052C188.256 70.2693 188.351 71.9448 188.678 73.5825C188.7 73.8264 188.817 74.0519 189.003 74.2114C189.285 74.3957 189.643 74.2114 189.925 74.0596C191.231 73.2663 192.308 72.1448 193.047 70.8065L194.446 74.168C194.548 74.5129 194.772 74.8093 195.075 75.003C195.288 75.0805 195.521 75.083 195.736 75.0101C195.951 74.9371 196.135 74.7931 196.257 74.6018C196.495 74.2138 196.64 73.7757 196.679 73.3222L197.2 70.1234C197.216 69.9588 197.276 69.8017 197.373 69.6679C197.536 69.5481 197.736 69.4904 197.937 69.5053C199.267 69.5053 200.601 69.5053 201.938 69.5053C202.177 68.7896 201.461 68.1281 200.778 67.8354C200.095 67.5426 199.282 67.304 198.946 66.6426C198.252 65.2871 200.03 63.3895 199.282 62.2401C198.393 60.8087 196.929 62.1533 195.769 62.7389Z" fill="#67A24A"/>
<path d="M67.5119 182.886C67.325 182.999 67.1122 183.062 66.8939 183.07C66.4927 183.07 66.2107 182.669 66.0481 182.3C65.1482 180.348 65.6686 177.822 64.2808 176.173C62.8783 177.864 61.748 179.763 60.9304 181.801L55.6501 180.164C55.4056 181.188 55.3678 182.251 55.5391 183.29C55.7104 184.329 56.0873 185.323 56.6476 186.215C55.7207 186.617 54.8783 187.191 54.1647 187.906C53.8124 188.267 53.5655 188.718 53.4508 189.209C53.3361 189.7 53.358 190.213 53.5141 190.693C54.7343 190.988 55.9896 191.112 57.2439 191.062C57.0458 193.379 57.1808 195.712 57.6451 197.991C57.6321 198.198 57.6853 198.403 57.797 198.578C57.9087 198.752 58.0732 198.887 58.2664 198.962C58.4597 199.037 58.6718 199.048 58.872 198.994C59.0722 198.941 59.2502 198.825 59.38 198.663C61.2051 197.539 62.7011 195.953 63.717 194.065L65.6795 198.75C65.8226 199.233 66.1342 199.648 66.5577 199.921C66.8559 200.025 67.1804 200.026 67.4793 199.924C67.7781 199.822 68.034 199.622 68.2058 199.357C68.5269 198.814 68.7232 198.207 68.7805 197.579L69.5177 193.111C69.5286 192.881 69.6121 192.661 69.7562 192.482C69.98 192.314 70.2577 192.233 70.5369 192.254C72.4019 192.254 74.2668 192.189 76.1209 192.2C76.4462 191.213 75.4486 190.292 74.5053 189.88C73.562 189.468 72.4235 189.142 71.9465 188.221C70.9706 186.334 73.4861 183.71 72.4127 182.094C71.1658 180.196 69.1383 182.072 67.5119 182.886Z" fill="#67A24A"/>
<path d="M14.1554 65.8507C13.9666 65.9687 13.749 66.0324 13.5265 66.0351C13.1361 66.0351 12.8543 65.6339 12.6808 65.276C11.7917 63.3242 12.3013 60.7976 10.9243 59.1494C9.51628 60.8379 8.38203 62.7369 7.56305 64.7772L2.29357 63.1398C2.0435 64.1636 2.00297 65.2273 2.17439 66.2671C2.34581 67.3069 2.72563 68.3013 3.29107 69.1906C2.3653 69.59 1.52301 70.1602 0.808146 70.8713C0.453895 71.2333 0.205898 71.6857 0.0911755 72.179C-0.0235475 72.6724 -0.000628261 73.1878 0.157552 73.669C1.37757 73.9652 2.63301 74.0892 3.8874 74.0377C3.69169 76.3542 3.82314 78.6868 4.27779 80.9667C4.28847 81.1367 4.33444 81.3027 4.41286 81.4539C4.49126 81.6051 4.60037 81.7383 4.73316 81.845C5.12349 82.0944 5.62225 81.845 6.02343 81.639C7.84898 80.5107 9.34491 78.9212 10.3605 77.0305L12.323 81.7149C12.4661 82.1977 12.7728 82.6155 13.1904 82.8969C13.49 82.9963 13.8141 82.9938 14.1121 82.8898C14.4102 82.7859 14.6656 82.5863 14.8385 82.3222C15.1661 81.7815 15.3663 81.1734 15.4239 80.5438L16.1504 76.0871C16.1692 75.8573 16.256 75.6384 16.3998 75.4582C16.6206 75.2838 16.9005 75.2022 17.1804 75.2304C19.0345 75.1762 20.8995 75.1654 22.7644 75.1762C23.0788 74.1895 22.0921 73.2678 21.138 72.8449C20.1838 72.422 19.0562 72.1183 18.5792 71.1966C17.6142 69.3098 20.1188 66.6857 19.0562 65.0592C17.8093 63.1724 15.7817 65.0375 14.1554 65.8507Z" fill="#67A24A"/>
<path opacity="0.2" d="M176.111 138.329C176.012 138.388 175.9 138.421 175.786 138.427C175.569 138.427 175.428 138.21 175.33 138.015C174.853 136.93 175.135 135.64 174.398 134.762C173.652 135.66 173.052 136.67 172.62 137.755L169.811 136.887C169.672 137.437 169.647 138.009 169.739 138.569C169.83 139.129 170.036 139.663 170.343 140.14C169.849 140.354 169.4 140.66 169.02 141.04C168.836 141.233 168.708 141.471 168.648 141.731C168.589 141.991 168.602 142.262 168.684 142.515C169.329 142.676 169.993 142.745 170.657 142.721C170.55 143.95 170.623 145.189 170.874 146.397C170.881 146.487 170.905 146.574 170.946 146.654C170.987 146.734 171.044 146.805 171.113 146.863C171.226 146.909 171.349 146.923 171.469 146.904C171.589 146.884 171.702 146.833 171.796 146.755C172.763 146.153 173.556 145.308 174.094 144.304L175.179 146.798C175.253 147.054 175.419 147.275 175.645 147.416C175.803 147.475 175.976 147.478 176.136 147.425C176.295 147.372 176.432 147.265 176.523 147.123C176.696 146.837 176.8 146.514 176.827 146.18L177.217 143.805C177.225 143.683 177.271 143.565 177.347 143.469C177.468 143.386 177.613 143.344 177.759 143.35H180.73C180.903 142.829 180.372 142.341 179.873 142.114C179.375 141.886 178.789 141.734 178.507 141.235C177.998 140.238 179.331 138.85 178.757 137.982C178.182 137.115 176.935 137.896 176.111 138.329Z" fill="#67A24A"/>
<path opacity="0.2" d="M103.585 180.186C103.48 180.239 103.366 180.273 103.249 180.283C103.146 180.258 103.052 180.206 102.974 180.134C102.896 180.062 102.838 179.972 102.804 179.871C102.327 178.841 102.598 177.496 101.872 176.618C101.123 177.516 100.519 178.526 100.083 179.611L97.2856 178.743C97.1468 179.293 97.1224 179.866 97.2138 180.425C97.3051 180.985 97.5104 181.52 97.8168 181.997C97.3237 182.207 96.8748 182.508 96.4941 182.886C96.3063 183.078 96.1748 183.318 96.1136 183.58C96.0525 183.842 96.064 184.116 96.1471 184.371C96.7953 184.534 97.4639 184.6 98.1313 184.567C98.0261 185.799 98.0955 187.04 98.3373 188.253C98.3561 188.433 98.4411 188.599 98.5758 188.72C98.7818 188.85 99.0529 188.72 99.2589 188.611C100.23 188.011 101.027 187.166 101.568 186.161L102.653 188.655C102.727 188.911 102.893 189.131 103.119 189.273C103.278 189.327 103.451 189.326 103.61 189.271C103.769 189.216 103.905 189.11 103.997 188.969C104.17 188.682 104.274 188.359 104.301 188.026L104.691 185.662C104.699 185.539 104.745 185.422 104.821 185.326C104.937 185.233 105.086 185.19 105.233 185.206C106.22 185.206 107.207 185.206 108.204 185.206C108.367 184.686 107.846 184.198 107.337 183.97C106.827 183.742 106.252 183.58 105.981 183.092C105.461 182.094 106.795 180.695 106.231 179.839C105.667 178.982 104.453 179.752 103.585 180.186Z" fill="#67A24A"/>
<path opacity="0.5" d="M33.4335 33.6885C33.3361 33.7503 33.2236 33.784 33.1083 33.7861C32.8914 33.7861 32.7396 33.5693 32.6529 33.3849C32.1758 32.3006 32.4469 30.9993 31.7204 30.1318C30.9693 31.0243 30.3653 32.031 29.9314 33.1138L27.134 32.2463C26.9939 32.7959 26.9688 33.3686 27.0603 33.9283C27.1517 34.4881 27.3577 35.0229 27.6653 35.4994C27.1738 35.7174 26.7257 36.0223 26.3425 36.3994C26.1537 36.5912 26.0215 36.8314 25.9603 37.0935C25.899 37.3555 25.9112 37.6294 25.9955 37.885C26.6456 38.0362 27.3127 38.1018 27.9797 38.0802C27.8739 39.3091 27.9432 40.5468 28.1858 41.7562C28.1934 41.8483 28.2195 41.938 28.2623 42.0199C28.3051 42.1018 28.3639 42.1744 28.4351 42.2333C28.6411 42.3634 28.9013 42.2333 29.1182 42.114C30.0843 41.5155 30.8769 40.6743 31.4168 39.6742L32.5011 42.1574C32.5789 42.4147 32.7437 42.637 32.9673 42.7863C33.1266 42.8402 33.2994 42.8396 33.4583 42.7846C33.6173 42.7297 33.7535 42.6235 33.8455 42.4827C34.0182 42.1959 34.1221 41.873 34.1492 41.5393L34.5395 39.1645C34.5478 39.0419 34.5932 38.9247 34.6696 38.8284C34.7906 38.7454 34.935 38.7036 35.0816 38.7091C36.0683 38.7091 37.0658 38.7091 38.0525 38.7091C38.2151 38.1778 37.6947 37.6898 37.1851 37.473C36.6755 37.2561 36.1008 37.0826 35.8298 36.5946C35.3093 35.5862 36.6538 34.1982 36.0791 33.3415C35.5045 32.4849 34.3009 33.2656 33.4335 33.6885Z" fill="#67A24A"/>
<path opacity="0.5" d="M70.7645 116.241C70.6684 116.305 70.555 116.339 70.4392 116.338C70.2224 116.338 70.0814 116.121 69.9947 115.937C69.5176 114.853 69.7887 113.552 69.0514 112.684C68.3095 113.585 67.7098 114.594 67.2732 115.677L64.465 114.809C64.3307 115.36 64.3085 115.931 64.3997 116.49C64.491 117.049 64.6939 117.584 64.9963 118.062C64.5072 118.279 64.0624 118.584 63.6843 118.963C63.4955 119.154 63.3633 119.394 63.3021 119.657C63.2408 119.919 63.253 120.193 63.3373 120.448C63.9837 120.599 64.6472 120.665 65.3107 120.643C65.2084 121.873 65.2814 123.11 65.5275 124.319C65.5333 124.411 65.5573 124.5 65.5983 124.582C65.6393 124.664 65.6963 124.737 65.7661 124.796C65.9721 124.926 66.2431 124.796 66.4491 124.677C67.4287 124.065 68.2291 123.204 68.7695 122.183L69.8537 124.666C69.9254 124.927 70.0916 125.151 70.32 125.295C70.4775 125.35 70.6492 125.35 70.8068 125.295C70.9643 125.24 71.0985 125.133 71.1873 124.992C71.3638 124.706 71.4715 124.383 71.5018 124.048L71.8921 121.673C71.8959 121.55 71.9418 121.431 72.0222 121.337C72.1418 121.251 72.2873 121.209 72.4343 121.218C73.4209 121.218 74.4076 121.218 75.3943 121.218C75.5678 120.687 75.0473 120.199 74.5377 119.982C74.0281 119.765 73.4535 119.591 73.1824 119.103C72.662 118.095 73.9956 116.707 73.4318 115.85C72.868 114.994 71.6319 115.818 70.7645 116.241Z" fill="#67A24A"/>
<path opacity="0.5" d="M43.669 84.0572C43.5729 84.1217 43.4595 84.1558 43.3438 84.1548C43.1269 84.1548 42.986 83.9487 42.8992 83.7536C42.4222 82.6692 42.6932 81.368 41.9559 80.5005C41.2104 81.395 40.6103 82.4013 40.1777 83.4825L37.3695 82.615C37.2352 83.1651 37.213 83.7367 37.3043 84.2956C37.3956 84.8545 37.5985 85.3893 37.9008 85.8681C37.4093 86.086 36.9612 86.3909 36.578 86.7681C36.3931 86.9623 36.2643 87.203 36.2051 87.4645C36.1459 87.7261 36.1586 87.9988 36.2419 88.2537C36.8873 88.4107 37.5516 88.4764 38.2152 88.4488C38.1139 89.6819 38.1869 90.923 38.4321 92.1357C38.4386 92.2254 38.4631 92.3129 38.5041 92.393C38.5451 92.4731 38.6017 92.5441 38.6706 92.6019C38.8766 92.7321 39.1477 92.6019 39.3537 92.4827C40.3323 91.8677 41.1295 91.0031 41.6632 89.9778L42.7474 92.461C42.8164 92.7196 42.9786 92.9437 43.2028 93.0899C43.3621 93.1438 43.5349 93.1432 43.6938 93.0882C43.8528 93.0333 43.989 92.9271 44.081 92.7863C44.2575 92.5004 44.3652 92.1775 44.3955 91.8429L44.775 89.4681C44.782 89.3485 44.8276 89.2343 44.9051 89.1428C45.0247 89.0486 45.1768 89.0057 45.328 89.0236C46.311 89.0236 47.2977 89.0236 48.288 89.0236C48.4615 88.4922 47.9302 88.0043 47.4314 87.7874C46.9327 87.5705 46.3472 87.397 46.0653 86.9091C45.5557 85.9006 46.8893 84.5126 46.3255 83.656C45.7617 82.7993 44.5364 83.6343 43.669 84.0572Z" fill="#67A24A"/>
<path opacity="0.5" d="M160.053 91.6368C159.957 91.7013 159.844 91.7353 159.728 91.7344C159.511 91.7344 159.37 91.5175 159.283 91.3332C158.806 90.2488 159.077 88.9476 158.34 88.0801C157.607 88.9773 157.018 89.9834 156.594 91.0621L153.786 90.1946C153.652 90.7447 153.63 91.3163 153.721 91.8752C153.812 92.4341 154.015 92.9688 154.318 93.4477C153.826 93.6656 153.378 93.9705 152.995 94.3477C152.81 94.5419 152.681 94.7825 152.622 95.0441C152.563 95.3056 152.575 95.5783 152.659 95.8332C153.305 95.9843 153.968 96.05 154.632 96.0284C154.53 97.2578 154.603 98.4956 154.849 99.7044C154.855 99.7959 154.879 99.8852 154.92 99.9672C154.961 100.049 155.018 100.122 155.087 100.182C155.293 100.312 155.564 100.182 155.77 100.062C156.739 99.4632 157.535 98.6224 158.08 97.6224L159.164 100.106C159.236 100.366 159.402 100.59 159.63 100.735C159.788 100.788 159.959 100.787 160.116 100.732C160.273 100.677 160.408 100.571 160.498 100.431C160.674 100.145 160.782 99.8221 160.812 99.4875L161.203 97.1128C161.207 96.9912 161.249 96.8739 161.322 96.7766C161.446 96.6921 161.595 96.6503 161.745 96.6574C162.731 96.6574 163.718 96.6574 164.705 96.6574C164.878 96.126 164.347 95.6381 163.848 95.4212C163.349 95.2043 162.764 95.0308 162.482 94.5429C161.972 93.5344 163.306 92.1464 162.742 91.2898C162.178 90.4331 160.932 91.2139 160.053 91.6368Z" fill="#67A24A"/>
<path opacity="0.2" d="M103.585 85.3043C103.484 85.3674 103.368 85.4012 103.249 85.4018C103.043 85.4018 102.891 85.185 102.804 85.0006C102.327 83.9163 102.598 82.615 101.872 81.7476C101.121 82.64 100.517 83.6467 100.083 84.7295L97.2854 83.8621C97.1453 84.4117 97.1202 84.9843 97.2116 85.544C97.303 86.1038 97.509 86.6387 97.8167 87.1151C97.3252 87.3331 96.8771 87.638 96.4939 88.0152C96.3051 88.2069 96.1728 88.4471 96.1116 88.7092C96.0504 88.9712 96.0626 89.2451 96.1469 89.5007C96.7969 89.6528 97.464 89.7184 98.1311 89.6959C98.0253 90.9248 98.0946 92.1625 98.3372 93.3719C98.3533 93.5554 98.4385 93.726 98.5757 93.849C98.7817 93.9791 99.0527 93.849 99.2588 93.7297C100.229 93.1327 101.025 92.2914 101.568 91.2899L102.652 93.7731C102.73 94.0304 102.895 94.2527 103.119 94.402C103.278 94.4559 103.451 94.4553 103.61 94.4003C103.769 94.3454 103.905 94.2392 103.997 94.0984C104.17 93.8116 104.274 93.4887 104.301 93.155L104.691 90.7803C104.699 90.6576 104.745 90.5404 104.821 90.4441C104.942 90.3611 105.086 90.3193 105.233 90.3248C106.22 90.3248 107.206 90.3248 108.204 90.3248C108.367 89.7935 107.846 89.3055 107.336 89.0887C106.827 88.8718 106.252 88.6983 105.981 88.2103C105.461 87.2019 106.794 85.8139 106.231 84.9573C105.667 84.1006 104.452 84.8814 103.585 85.3043Z" fill="#67A24A"/>
<path opacity="0.3" d="M85.8576 93.0142C85.7614 93.0788 85.6481 93.1128 85.5323 93.1118C85.3154 93.1118 85.1745 92.8949 85.0877 92.7106C84.6106 91.6262 84.8817 90.325 84.1444 89.4575C83.3966 90.3504 82.7963 91.3571 82.3662 92.4395L79.558 91.572C79.4237 92.1222 79.4015 92.6937 79.4928 93.2526C79.5841 93.8115 79.7869 94.3463 80.0893 94.8251C79.5978 95.043 79.1497 95.3479 78.7665 95.7251C78.5816 95.9193 78.4527 96.16 78.3936 96.4215C78.3344 96.6831 78.3471 96.9558 78.4304 97.2107C79.0768 97.3618 79.7402 97.4274 80.4037 97.4059C80.3014 98.6353 80.3744 99.873 80.6206 101.082C80.6263 101.173 80.6504 101.263 80.6914 101.345C80.7324 101.427 80.7894 101.499 80.8592 101.559C81.0652 101.689 81.3362 101.559 81.5422 101.44C82.5108 100.841 83.3066 99.9998 83.8516 98.9999L84.9359 101.483C85.0076 101.743 85.1739 101.968 85.4022 102.112C85.5599 102.165 85.7309 102.164 85.888 102.109C86.0451 102.054 86.1794 101.948 86.2696 101.808C86.446 101.523 86.5537 101.2 86.584 100.865L86.9743 98.4902C86.9789 98.3686 87.0205 98.2513 87.0936 98.1541C87.2167 98.0677 87.367 98.0291 87.5164 98.0456C88.5067 98.0456 89.4935 98.0456 90.4765 98.0456C90.65 97.5143 90.1187 97.0263 89.6199 96.8095C89.1212 96.5926 88.5356 96.4191 88.2537 95.9311C87.7441 94.9227 89.0778 93.5347 88.514 92.6781C87.9502 91.8214 86.725 92.5913 85.8576 93.0142Z" fill="#67A24A"/>
<path opacity="0.2" d="M69.3442 46.3541C69.2434 46.4172 69.127 46.451 69.0081 46.4516C68.802 46.4516 68.6503 46.2348 68.5635 46.0504C68.0865 44.9661 68.3575 43.6649 67.6311 42.7974C66.882 43.6954 66.2784 44.7052 65.842 45.7902L63.0446 44.9227C62.9046 45.4723 62.8795 46.0449 62.9709 46.6047C63.0623 47.1644 63.2683 47.6993 63.576 48.1758C63.0845 48.3937 62.6363 48.6986 62.2531 49.0758C62.0644 49.2676 61.9321 49.5077 61.8709 49.7698C61.8097 50.0319 61.8219 50.3058 61.9062 50.5614C62.5563 50.7125 63.2233 50.7782 63.8904 50.7566C63.7845 51.9855 63.8539 53.2232 64.0964 54.4325C64.1125 54.6161 64.1978 54.7866 64.3349 54.9097C64.5409 55.0398 64.812 54.9096 65.018 54.7904C65.9881 54.1933 66.7845 53.352 67.3275 52.3506L68.4117 54.8337C68.4896 55.0911 68.6544 55.3134 68.8779 55.4627C69.0373 55.5165 69.21 55.516 69.369 55.461C69.528 55.406 69.6641 55.2998 69.7562 55.159C69.9288 54.8722 70.0328 54.5493 70.0598 54.2157L70.4501 51.8409C70.4585 51.7183 70.5038 51.6011 70.5802 51.5048C70.7012 51.4218 70.8457 51.38 70.9923 51.3855C71.9789 51.3855 72.9764 51.3855 73.9631 51.3855C74.1258 50.8541 73.6053 50.3662 73.0957 50.1493C72.5861 49.9324 72.0115 49.7589 71.7404 49.271C71.22 48.2625 72.5536 46.8746 71.9898 46.0179C71.4259 45.1613 70.2116 45.9203 69.3442 46.3541Z" fill="#67A24A"/>
<path opacity="0.3" d="M101.883 107.241C101.782 107.304 101.666 107.338 101.547 107.338C101.341 107.338 101.189 107.132 101.102 106.937C100.625 105.853 100.896 104.552 100.17 103.684C99.4207 104.578 98.817 105.584 98.3806 106.666L95.5832 105.799C95.4431 106.348 95.4181 106.921 95.5095 107.481C95.6009 108.04 95.8068 108.575 96.1145 109.052C95.623 109.27 95.1749 109.575 94.7917 109.952C94.6029 110.143 94.4707 110.384 94.4095 110.646C94.3483 110.908 94.3604 111.182 94.4447 111.437C95.0939 111.594 95.7617 111.659 96.429 111.632C96.3241 112.865 96.3934 114.106 96.635 115.319C96.6538 115.499 96.7388 115.665 96.8735 115.786C97.0795 115.916 97.3506 115.786 97.5674 115.666C98.5336 115.068 99.3261 114.227 99.866 113.226L100.95 115.71C101.028 115.967 101.193 116.189 101.417 116.339C101.576 116.392 101.749 116.392 101.908 116.337C102.067 116.282 102.203 116.176 102.295 116.035C102.467 115.748 102.571 115.425 102.598 115.092L102.989 112.717C102.996 112.597 103.041 112.483 103.119 112.391C103.235 112.299 103.383 112.256 103.531 112.272C104.518 112.272 105.515 112.272 106.502 112.272C106.664 111.741 106.144 111.253 105.634 111.036C105.125 110.819 104.55 110.646 104.279 110.158C103.759 109.149 105.092 107.761 104.528 106.905C103.965 106.048 102.75 106.818 101.883 107.241Z" fill="#67A24A"/>
</g>
</svg>
